<svg id="レイヤー_1" data-name="レイヤー 1" xmlns="http://www.w3.org/2000/svg" xmlns:xlink="http://www.w3.org/1999/xlink" viewBox="0 0 351.38 80"><defs><style>.cls-1{fill:none;}.cls-2{clip-path:url(#clip-path);}.cls-3{fill:#fff;}.cls-4{fill:#231815;}.cls-5{fill:#ffe100;}.cls-6{fill:#f3c457;}.cls-7{fill:#3e3a39;}.cls-8{fill:#cbad48;}.cls-9{fill:#0363a6;}.cls-10{fill:#f9f3c1;}.cls-11{fill:#717071;}</style><clipPath id="clip-path"><path class="cls-1" d="M72.44,40a31,31,0,0,1-62,0c0-17.12-1.8-40,31-40C58.56,0,72.44,22.88,72.44,40Z"/></clipPath></defs><path d="M41.44.93A39.07,39.07,0,1,1,2.37,40,39.11,39.11,0,0,1,41.44.93m0-.93a40,40,0,1,0,40,40,40,40,0,0,0-40-40Z"/><path d="M41.44,9.06A30.94,30.94,0,1,1,10.5,40,31,31,0,0,1,41.44,9.06m0-7.26A38.2,38.2,0,1,0,79.64,40,38.2,38.2,0,0,0,41.44,1.8Z"/><g class="cls-2"><path class="cls-3" d="M28.09,24.43a1.93,1.93,0,0,1-1.54-3.14,11.34,11.34,0,0,0,1.67-4.18,17.59,17.59,0,0,0,.22-3.17,1.93,1.93,0,0,1-1.5-.4A2,2,0,0,1,26.19,12a2.1,2.1,0,0,1,1.75-2.15l1-.21c0-.27,0-.51-.07-.67a2,2,0,0,1,1.6-2.26c2-.42,2.82-.07,3.27.29a1.86,1.86,0,0,1,.59.8,5.71,5.71,0,0,0,.14-.64,2.06,2.06,0,0,1,2-1.73,4.37,4.37,0,0,1,2.84.74,2.1,2.1,0,0,1,.45.62,2.43,2.43,0,0,1,1.44-1,3.47,3.47,0,0,1,2.57.86h0a2.43,2.43,0,0,1,1,1.78,1.33,1.33,0,0,1,.05.34,1.81,1.81,0,0,1-1.43,1.75s0,.06,0,.1A2.91,2.91,0,0,1,45,12.81a1.55,1.55,0,0,1-.06.95,1.57,1.57,0,0,1-1.27,1,1.82,1.82,0,0,1-.4.11c-.37.31-.73.59-1.07.83a3.08,3.08,0,0,0,1.52.72,2,2,0,0,1,1.69,1.68s0,.09,0,.15a1.77,1.77,0,0,1,0,.2,1.61,1.61,0,0,1-1.07,1.67c-.2.1-.23.15-.25.18a1.79,1.79,0,0,1-1.29.87,2.29,2.29,0,0,1-1.68-.1A6.48,6.48,0,0,1,39.42,20q0,.39,0,.57a2.09,2.09,0,0,1-1.82,2.06l-.38.1a2.09,2.09,0,0,1-1.77-.38,1.9,1.9,0,0,1-.55-.67,3.64,3.64,0,0,1-2.34,1.62l-.41.11a2.3,2.3,0,0,1-1.77-.27,7.16,7.16,0,0,1-.57.65,1.91,1.91,0,0,1-1.05.56A2.13,2.13,0,0,1,28.09,24.43Zm1.33-11.7v.6a20.06,20.06,0,0,1-.23,4,12.22,12.22,0,0,1-1.83,4.56,1,1,0,0,0,1.12,1.51l.13,0a.82.82,0,0,0,.48-.24,11.28,11.28,0,0,0,.83-1l.37-.51.41.47A1.18,1.18,0,0,0,32,22.4l.21,0,.06-.06h.16a2.84,2.84,0,0,0,2-1.8,5.31,5.31,0,0,0,.27-.89l1,.1V20c0,.28,0,.5,0,.66a1.13,1.13,0,0,0,.41.89,1.1,1.1,0,0,0,.95.19,2,2,0,0,0,.29-.08l.12,0a1.07,1.07,0,0,0,1-1c0-.15,0-.4,0-.73l-.14-3,1,1.42a5.42,5.42,0,0,0,2.27,1.91,1.27,1.27,0,0,0,1,.05l.14,0a.8.8,0,0,0,.6-.43,1.42,1.42,0,0,1,.65-.53c.38-.18.55-.39.51-.65l0-.24a.41.41,0,0,0,0-.12c0-.19-.16-.66-.89-.81A4,4,0,0,1,41,16l-.34-.43.45-.3A17.14,17.14,0,0,0,42.69,14l.12-.1.15,0a1,1,0,0,0,.35-.09l.11,0A.64.64,0,0,0,44,13.4.5.5,0,0,0,44,13l0-.15c0-.52-.5-1.1-1.3-1.53l-.3-.16,0-.33a.49.49,0,0,0,0-.21l0-.15a.78.78,0,0,0,0-.22l-.11-.46.44-.14c.77-.17,1.16-.49,1.15-.88a.35.35,0,0,0,0-.14l0-.16a1.37,1.37,0,0,0-.66-1.06h0a2.54,2.54,0,0,0-1.75-.67c-.39.08-.71.38-1.22,1.16L40,8.11l-1,.21-.13-.72a.86.86,0,0,0-.3-.67,3.23,3.23,0,0,0-2.09-.48,1.05,1.05,0,0,0-1,.85,8.9,8.9,0,0,1-.33,1.38L35,9.23,34.43,9a1.61,1.61,0,0,0-.55-.18l-.37-.05-.06-.37a.91.91,0,0,0-.33-.58,3.27,3.27,0,0,0-2.45-.09,1,1,0,0,0-.81,1.13c0,.26.08.71.11,1.2l0,.43-1.85.38A1.12,1.12,0,0,0,27.19,12a1,1,0,0,0,.37.77,1.08,1.08,0,0,0,.9.17Z"/><path class="cls-3" d="M28.1,23.47a1,1,0,0,1-.65-.24,1,1,0,0,1-.09-1.41,12.37,12.37,0,0,0,1.82-4.54,20.74,20.74,0,0,0,.2-4.51l-.91.19a1.11,1.11,0,0,1-.93-.18,1,1,0,0,1-.38-.79,1.14,1.14,0,0,1,1-1.17L30,10.44a13.14,13.14,0,0,0-.13-1.6,1,1,0,0,1,.84-1.16,3.27,3.27,0,0,1,2.47.1,1,1,0,0,1,.35.7,1.06,1.06,0,0,1,0,.32l.08,0a1.93,1.93,0,0,1,1.36.45,9.78,9.78,0,0,0,.53-1.9,1.08,1.08,0,0,1,1.06-.91,3.58,3.58,0,0,1,2.1.48,1,1,0,0,1,.31.66,1,1,0,0,1-.35.83L40,8.09c.52-.83.87-1.24,1.33-1.34.72-.15,1.67.59,1.78.68a1.47,1.47,0,0,1,.67,1.07c0,.3-.12,1-1.48,1.31l-.17,0a1,1,0,0,1,.19,1,.78.78,0,0,1-.16.32.93.93,0,0,1,.33.12c.68.32,1.79,1.13,1.41,2a1.14,1.14,0,0,1-1.27.68,16.67,16.67,0,0,1-2,1.48,4.09,4.09,0,0,0,2.81,2c.75.15.89.63.91.84s0,.74-.75,1.09a1.11,1.11,0,0,0-.48.37,1.23,1.23,0,0,1-1.65.5,6.21,6.21,0,0,1-3.26-3.86v.22c0,1.29.08,2.27.12,2.92,0,.37,0,.61,0,.77a1.53,1.53,0,0,1-1.37,1.5,1.09,1.09,0,0,1-1.39-1.11c0-.18,0-.45,0-.8,0-.66,0-1.66,0-3l-.05-1.64-.47.19-.08,0a14.83,14.83,0,0,1-.64,4.93A3.23,3.23,0,0,1,32,22.43a1.24,1.24,0,0,1-1.4-.48l-.1,0a1.15,1.15,0,0,1-.43-.21A11.08,11.08,0,0,1,29,23.08,1.27,1.27,0,0,1,28.1,23.47Zm2.21-11.92,0,.57a22.7,22.7,0,0,1-.19,5.34,13.21,13.21,0,0,1-2,4.93.44.44,0,0,0-.05.09,1.15,1.15,0,0,0,.13-.1,10.75,10.75,0,0,0,2.59-5.23,17.76,17.76,0,0,0,.27-2.52l0-.38,2.15-.45,0,.57c.11,1.56.06,4.29-.49,5.43a1.4,1.4,0,0,1-1,.92,5.62,5.62,0,0,1-1,.13.34.34,0,0,0-.18.06s0,0,.13.06a1,1,0,0,1,.61.36c.11.15.13.18.4.12A2.23,2.23,0,0,0,33.44,20,14.22,14.22,0,0,0,34,15V14.4l.4.06.16-.91-.09-.07-.1-.07L34,13.19l-.35-.07a.55.55,0,0,0-.19,0s-.11,0-.4.45l-.11.16-1.81.37,0-.62V11.94l.34-.12c.12,0,.32-.12.33-.23l0-.36,2.36-.49.16,0,.42-.13-.13-.18a1.3,1.3,0,0,0-.29-.28,1.71,1.71,0,0,0-.66-.35s-.19.11-.66.89l-.11.19-1.27.26-.06-2L32,9c.37-.17.55-.31.54-.45a5.66,5.66,0,0,0-1.62.15c0,.48.09,1.37.1,2.18v.41l-2.64.55c-.18,0-.18.1-.18.16s0,0,.11,0Zm6.2,2.09.09,3.17c0,1.35,0,2.36,0,3,0,.34,0,.6,0,.77a.29.29,0,0,0,0,.16.3.3,0,0,0,.15,0c.22-.05.59-.17.58-.49,0-.15,0-.39,0-.71,0-.7-.09-1.68-.12-3l-.09-2.92.29-.14a.52.52,0,0,0,.22-.16l.71-1.13.21,1.32c.47,3.07,1.56,4.94,3.31,5.73.25.1.3.05.41-.14a2.21,2.21,0,0,1,.88-.72l.1-.05h0a5.13,5.13,0,0,1-3.74-2.89l-.21-.43.41-.23a15.6,15.6,0,0,0,2.39-1.76l.17-.15.23,0c.26,0,.41,0,.43,0s-.46-.55-.94-.77v0l-.1.05a14.36,14.36,0,0,1-2,2.26L39.3,15l-.23-.74a9.89,9.89,0,0,1-.38-1.68l0-.29.24-.18a19.14,19.14,0,0,0,1.67-1.39l.17-.16.23,0c.3,0,.41,0,.42-.06s-.21-.29-.63-.48l-.29-.14-.19.22a17.39,17.39,0,0,1-5,3.94l-.75.42h0a.32.32,0,0,0,.16,0c.37-.14.73-.31,1.08-.48Zm-4.42,1.43a15.9,15.9,0,0,1-.26,2.28,12.43,12.43,0,0,1-.76,2.48,4.2,4.2,0,0,0,.53-.09c.07,0,.2,0,.32-.34A12.83,12.83,0,0,0,32.36,15Zm7.64-2.35c0,.15.05.3.08.44a11.36,11.36,0,0,0,1.3-1.53l0,0h0C40.76,11.89,40.29,12.29,39.73,12.72Zm-7.56-.1v.23l.21,0a1.55,1.55,0,0,1,.88-.69l.16,0,0-.07a.57.57,0,0,0,.08-.13l-.81.17A1.29,1.29,0,0,1,32.17,12.62Zm4.69-1.68a11.45,11.45,0,0,1-1.29,1.8,18.52,18.52,0,0,0,2.85-2.12Zm-1.67.11-.2.36c-.21.38-.43.77-.68,1.15l0,.06,0,0,.08-.06a11,11,0,0,0,1.7-2.27l.11-.2,5.89-1.22c.51-.1.67-.27.68-.31h0s0-.1-.29-.31h0a2.17,2.17,0,0,0-1-.48c-.06,0-.26.19-.8,1.07L40.63,9l-4.27.88L36.77,9l.37-.85.09-.23.24-.06c.16,0,.43-.13.43-.24a3.76,3.76,0,0,0-1.36-.17c-.11,0-.12,0-.13.08a10.69,10.69,0,0,1-.87,2.79l0,.06h.06l-.38.73Z"/><polygon class="cls-3" points="38.69 32.47 38.48 31.49 38.73 31.44 38.73 31.44 38.73 31.44 38.93 32.42 38.69 32.47"/><path class="cls-3" d="M19.76,50.36c-1.42-3.68-1.58-8.28-.45-13.3l.11-.46.46.07a46.94,46.94,0,0,0,7.62.52h.3l.14.26a1.38,1.38,0,0,0,1.48.69,1.35,1.35,0,0,0,1-.76l.12-.27.3,0A61.13,61.13,0,0,0,39.55,36,61.55,61.55,0,0,0,48,33.53l.28-.11.22.2a1.36,1.36,0,0,0,2.26-.9l0-.3.28-.12a47.13,47.13,0,0,0,6.78-3.5l.4-.26.28.38c3,4.16,4.72,8.45,4.88,12.39l-1,.2a4.72,4.72,0,0,0-4.83-3c-2.89.18-4.84,1.92-6.94,6.2,0,.11-.1.2-.15.3l-.05.08-.93-.35a4,4,0,0,0-.23-2.35c-1.75-4.64-7.46-3.85-9.17-3.49s-7.26,1.89-7,6.84A3.89,3.89,0,0,0,33.85,48l-.71.7-.08-.06-.26-.21c-3.63-3.09-6.11-3.91-8.83-2.93a4.71,4.71,0,0,0-3.24,4.66Zm.43-12.63A23.74,23.74,0,0,0,20.07,48a5.82,5.82,0,0,1,3.56-3.43c2.74-1,5.31-.38,8.6,2.12a4.93,4.93,0,0,1-.1-.88C31.91,41.24,36,38.74,40,37.93s8.69-.16,10.31,4.11a7.36,7.36,0,0,1,.25.85c2-3.6,4.13-5.18,7.05-5.37a5.82,5.82,0,0,1,4.63,1.74A23.71,23.71,0,0,0,58,29.89a48,48,0,0,1-6.28,3.22,2.38,2.38,0,0,1-1.82,1.81,2.41,2.41,0,0,1-1.81-.36A61.66,61.66,0,0,1,39.75,37a59.46,59.46,0,0,1-8.61,1.09,2.34,2.34,0,0,1-1.52,1,2.38,2.38,0,0,1-2.39-.93h0A49.35,49.35,0,0,1,20.19,37.73Z"/><path class="cls-3" d="M49.42,35a2.35,2.35,0,0,1-1.57-.6l-.63-.56.79-.28c1-.39,2.08-.8,3.07-1.23l.76-.32-.07.82a2.38,2.38,0,0,1-1.87,2.12A2.61,2.61,0,0,1,49.42,35Zm.64-1.16-.29.11Z"/><path class="cls-3" d="M29.15,39.17a2.4,2.4,0,0,1-2.09-1.24l-.39-.74h.83c1.09,0,2.2,0,3.3-.1l.84-.05-.35.76a2.34,2.34,0,0,1-1.67,1.32h0A2.42,2.42,0,0,1,29.15,39.17Zm-.12-1a1.6,1.6,0,0,0,.31,0Z"/><path class="cls-3" d="M47.52,29.79,47,28.93a13.63,13.63,0,0,0,4.47-6.42A13.46,13.46,0,0,0,52,20.28l.16-1,.69.7a22.9,22.9,0,0,1,3.43,4.39l.24.4-.39.27c-1.51,1-3,1.91-4.51,2.74-.63.34-1.27.67-1.91,1S48.26,29.47,47.52,29.79Zm5.31-8.39a13.08,13.08,0,0,1-.4,1.43,14.62,14.62,0,0,1-2.71,4.85c.49-.24,1-.49,1.45-.75,1.36-.74,2.69-1.53,4-2.42A21.47,21.47,0,0,0,52.83,21.4Z"/><path class="cls-3" d="M34.87,27.08a10.5,10.5,0,0,1-7.24-2.72,12.17,12.17,0,0,1-2.74-3.86l-.13-.29L25,20a18.16,18.16,0,0,1,10-6.15h0a18.14,18.14,0,0,1,11.6,1.68l.29.14V16a12.22,12.22,0,0,1-1,4.63,11,11,0,0,1-8.22,6.21A13.38,13.38,0,0,1,34.87,27.08Zm-8.93-6.71a10.83,10.83,0,0,0,2.37,3.25,10.05,10.05,0,0,0,9.13,2.19,10,10,0,0,0,7.5-5.64,10.63,10.63,0,0,0,.88-3.92,17.11,17.11,0,0,0-10.67-1.46h0A17.1,17.1,0,0,0,25.94,20.37Z"/><path class="cls-3" d="M34.28,32.93a14.18,14.18,0,0,1-11-4.64,14.77,14.77,0,0,1-1.8-2.46,14,14,0,0,1-.66-1.28c-2.93-6.43-.44-13.21,1.3-16.68l.94.26A26.73,26.73,0,0,0,24.51,19.9q.24.59.51,1.11a11.76,11.76,0,0,0,2.53,3.43A11.16,11.16,0,0,0,37.66,26.9,11.15,11.15,0,0,0,46,20.62a11.91,11.91,0,0,0,1-4.15c0-.39,0-.8,0-1.22A26.54,26.54,0,0,0,43.56,3.89l.76-.61c3,2.49,8,7.72,7.83,14.79a13.55,13.55,0,0,1-.1,1.43,15.36,15.36,0,0,1-.67,3c-1.74,5.18-6.08,8.63-12.57,10A22.15,22.15,0,0,1,34.28,32.93ZM22,10.68c-1.37,3.54-2.44,8.63-.24,13.46.18.4.39.8.61,1.19a14.33,14.33,0,0,0,1.68,2.29c3.4,3.78,8.43,5.11,14.55,3.84s10.2-4.48,11.82-9.3a15.08,15.08,0,0,0,.63-2.78c0-.44.08-.89.09-1.33.1-5.3-2.91-9.55-5.57-12.25a24.87,24.87,0,0,1,2.36,9.42c0,.46,0,.89,0,1.31A12.75,12.75,0,0,1,46.87,21a12.13,12.13,0,0,1-9,6.85,12.1,12.1,0,0,1-11-2.71,12.72,12.72,0,0,1-2.75-3.71c-.19-.37-.37-.77-.54-1.19A24.87,24.87,0,0,1,22,10.68Z"/><path class="cls-3" d="M29.09,33.47c-.59,0-1.17,0-1.76,0s-1.42-.07-2.14-.14A51.63,51.63,0,0,1,20,32.57l-.46-.09.06-.47A23,23,0,0,1,21,26.62l.36-.91.53.83a14,14,0,0,0,1.38,1.82,13.7,13.7,0,0,0,6.66,4.12l-.12,1Zm-8.47-1.8c1.59.29,3.12.49,4.66.63.54.05,1.09.08,1.63.11A14.56,14.56,0,0,1,22.49,29c-.32-.36-.64-.74-.93-1.14A21.1,21.1,0,0,0,20.62,31.67Z"/><path class="cls-3" d="M27.23,37.08c-1.57,0-3.1-.06-4.54-.18-.56,0-1.11-.1-1.63-.17s-.84-.11-1.24-.18l-.39-.07,0-.55.49-.08-.5,0,.5,0-.5-.06v-.14a18.9,18.9,0,0,1,.05-2.5l0-.55.55.1c1.17.22,2.35.4,3.5.53.66.09,1.32.15,2,.2,1,.08,2,.13,3,.15a46.89,46.89,0,0,0,10.22-1l.27-.06a46.91,46.91,0,0,0,9.77-3.14c.91-.41,1.81-.86,2.67-1.32.58-.31,1.16-.63,1.74-1,1-.58,2-1.21,3-1.88l.46-.31.26.49a19.48,19.48,0,0,1,1,2.27l.29.79-.33.21c-.34.22-.7.44-1.07.66s-.93.54-1.43.8a63.07,63.07,0,0,1-15.84,5.77A63.29,63.29,0,0,1,27.23,37.08Zm-6.85-1.45.8.11,1.6.16a61.59,61.59,0,0,0,16.54-1A61.77,61.77,0,0,0,54.9,29.24c.48-.26,1-.52,1.39-.78L57,28v0c-.22-.57-.47-1.13-.74-1.67-.86.57-1.73,1.11-2.59,1.61-.59.34-1.18.67-1.77,1-.88.48-1.8.93-2.73,1.35a46.8,46.8,0,0,1-10,3.21l-.27.06a47.55,47.55,0,0,1-10.44,1c-1,0-2-.07-3-.15-.67,0-1.34-.12-2-.2-1-.12-2-.27-3-.45,0,.6,0,1.22,0,1.83Z"/><path class="cls-3" d="M46.26,68.37l-.2,0c-8.48-1.57-14.77-4.62-18.72-9.07l-1.2-1.36,1.73.55c4.13,1.31,9.45.65,16.18-.74S55.92,54.81,59.19,52l1.37-1.19L60,52.5c-1.85,5.65-6.42,11-13.57,15.76Zm-17-8.53c3.8,3.58,9.42,6.1,16.75,7.48,6.18-4.19,10.34-8.72,12.4-13.52-3.41,2.31-8.19,3.65-14.19,4.9S33.33,60.6,29.29,59.84Z"/><path class="cls-3" d="M62.33,47.82l.55-1.59c1.46-4.54.51-9.76-2.74-15.1l.72-.67q1.52,1.11,3,2.16c2.74,2,5.32,3.81,7,5.29a1.88,1.88,0,0,1,.53,2c-.54,2-3.4,4.6-7.85,7.22ZM62.1,32.59c2.32,4.56,3,9,2,13,3.5-2.2,5.87-4.43,6.28-6h0a.85.85,0,0,0-.24-1c-1.59-1.44-4.15-3.27-6.86-5.21Z"/><path class="cls-3" d="M34.3,31.91a13.21,13.21,0,0,1-10.23-4.3,14.3,14.3,0,0,1-3.51-8.78,18.13,18.13,0,0,1,.54-5.43l1,.09c.39,5.21,2,9.15,4.77,11.7a12.14,12.14,0,0,0,11,2.71,12.15,12.15,0,0,0,9-6.86c1.53-3.45,1.44-7.7-.27-12.64l.87-.47a18.46,18.46,0,0,1,2.66,4.76,14.32,14.32,0,0,1,.26,9.46c-1.61,4.81-5.69,8-11.81,9.29h0A20.63,20.63,0,0,1,34.3,31.91ZM21.56,17a13.07,13.07,0,0,0,0,1.77,13.3,13.3,0,0,0,3.26,8.17c3.14,3.5,7.84,4.72,13.58,3.53h0c5.74-1.2,9.57-4.18,11.06-8.64A13.3,13.3,0,0,0,49.21,13a15.47,15.47,0,0,0-.71-1.63,16.1,16.1,0,0,1-.69,10,13.14,13.14,0,0,1-9.74,7.44,13.1,13.1,0,0,1-11.88-3A16,16,0,0,1,21.56,17Z"/><path class="cls-3" d="M23.34,55.9,22,55.74c-5.12-.63-8.8-1.91-10.07-3.51h0a1.86,1.86,0,0,1-.3-2,86.91,86.91,0,0,1,4.27-7.6c.63-1,1.27-2.11,1.9-3.19l.93.33c-.86,6.19.34,11.36,3.48,14.94ZM17.5,41.84l-.74,1.24a85.87,85.87,0,0,0-4.23,7.52.85.85,0,0,0,.18,1h0c1,1.23,4,2.33,8.13,3C18.32,51.29,17.19,46.94,17.5,41.84Z"/><path class="cls-3" d="M33.12,59.05a15.77,15.77,0,0,1-6.56-1.23c-.38-.18-.72-.35-1-.54l.16-.48-.25.43-.21-.13a12.3,12.3,0,0,1-1.74-1.3,15.08,15.08,0,0,1-1.19-1.21,14.12,14.12,0,0,1-2.53-4.23l0-.16a5.69,5.69,0,0,1,3.9-5.64c2.92-1.06,5.58-.32,9.12,2.53a5.21,5.21,0,0,1-.21-1.31c-.13-2.65,1.26-4.8,4-6.23l.4-.2.24.37c.8,1.18,2.16,2.34,3.55,2s2.18-1.89,2.45-3.28l.08-.44.44,0c3.09.21,5.22,1.64,6.16,4.12a6.07,6.07,0,0,1,.32,1.29c2.12-4,4.27-5.76,7.37-6h0a5.7,5.7,0,0,1,5.82,3.63l0,.16a14.3,14.3,0,0,1-.64,4.88,14.92,14.92,0,0,1-.59,1.56,11.9,11.9,0,0,1-1,1.87c-.07.1-.14.19-.2.29-.27.36-.5.65-.76.94-2.7,2.95-7.53,5-16.19,6.76A56.13,56.13,0,0,1,33.12,59.05Zm-12.4-9a12.78,12.78,0,0,0,3.43,5,10.44,10.44,0,0,0,1.6,1.2l.27.17a9.94,9.94,0,0,0,.92.47c4.09,1.85,9.49,1.27,16.88-.26,8.44-1.75,13.11-3.67,15.63-6.42.26-.29.47-.55.67-.82l.23-.33a10.27,10.27,0,0,0,.92-1.71,13.86,13.86,0,0,0,.56-1.46,13.37,13.37,0,0,0,.59-4.46,4.73,4.73,0,0,0-4.8-2.91c-2.75.17-4.6,1.71-6.56,5.47a4.49,4.49,0,0,1-.79,2.58.89.89,0,0,1-.57.39.92.92,0,0,1-1-1.41,3.07,3.07,0,0,0,.18-3,5.38,5.38,0,0,0-4.86-3.44c-.4,1.6-1.4,3.29-3.12,3.64s-3.31-.79-4.32-2.09a5.36,5.36,0,0,0-3.09,5.08,3.15,3.15,0,0,0,1.22,2.6.89.89,0,0,1,.37.59.9.9,0,0,1-.76,1,.87.87,0,0,1-.68-.16,4.52,4.52,0,0,1-1.52-1.9c-3.3-2.67-5.61-3.35-8.2-2.41A4.72,4.72,0,0,0,20.72,50.08Z"/><path class="cls-3" d="M38.12,85.71a2.38,2.38,0,0,1-2.26-1.52A50.84,50.84,0,0,1,34,78.68l-.22-.75c-3.3-3-5.08-7.26-5.64-13.46-3.39,2-5.69,2.55-7.1,1.62a2.71,2.71,0,0,1-1.14-2.16,3.2,3.2,0,0,1,1.62-2.71A27.42,27.42,0,0,0,25.44,58l.41-.41.35.47a23,23,0,0,0,8.11,6.63l.21.11,0,.22c1.58,6.57,5.44,8.85,12.52,7.38s9.72-5.09,8.55-11.75l0-.22.15-.18a23,23,0,0,0,4.81-9.32l.13-.56.54.21A26.9,26.9,0,0,0,66.11,52a3.25,3.25,0,0,1,2.57,1.84h0a2.69,2.69,0,0,1-.2,2.44c-.92,1.41-3.24,1.82-7.1,1.26,1.9,6,2,10.61.13,14.64l.09.8a50.82,50.82,0,0,1,.49,5.79,2.4,2.4,0,0,1-1.74,2.4,2.55,2.55,0,0,1-2.72-.6,21.37,21.37,0,0,1-2.27-4.47,37.09,37.09,0,0,1-7.07,2.1A32.64,32.64,0,0,1,41,79a25.73,25.73,0,0,1-.37,5.06,2.48,2.48,0,0,1-2.26,1.62Zm-10-22.29a1.12,1.12,0,0,1,.47.11,1,1,0,0,1,.58.85c.53,5.93,2.21,10,5.29,12.79a1,1,0,0,1,.31.48l.22.75a49.33,49.33,0,0,0,1.81,5.39,1.39,1.39,0,0,0,1.53.91c.7-.07,1.31-.5,1.38-.84A20.83,20.83,0,0,0,40,79.08,1,1,0,0,1,41.07,78a32.44,32.44,0,0,0,7-.81,31.62,31.62,0,0,0,6.76-2,1.13,1.13,0,0,1,.24-.08,1.05,1.05,0,0,1,1.19.63A20.72,20.72,0,0,0,58.44,80a1.64,1.64,0,0,0,1.6.23,1.4,1.4,0,0,0,1.05-1.45,51.85,51.85,0,0,0-.48-5.67l-.1-.77a1.11,1.11,0,0,1,.09-.57c1.72-3.78,1.64-8.18-.23-13.83a1.06,1.06,0,0,1,1.16-1.38c4.21.62,5.65-.1,6.11-.82a1.65,1.65,0,0,0,.11-1.5h0A2.33,2.33,0,0,0,65.91,53a29,29,0,0,1-4.52-1.27,24.19,24.19,0,0,1-4.72,9c1.52,9.29-4.61,11.68-9.38,12.67S36,74.58,33.65,65.45a24.12,24.12,0,0,1-7.91-6.37,27.89,27.89,0,0,1-3.64,3,2.33,2.33,0,0,0-1.19,1.88,1.63,1.63,0,0,0,.7,1.33c.71.47,2.31.56,5.93-1.67A1,1,0,0,1,28.1,63.42Z"/><path class="cls-3" d="M43.27,73.81c-4,0-8-1.67-9.67-8.59l-.26-1.06,1,.5a43.37,43.37,0,0,0,11.95,3.83,42.85,42.85,0,0,0,9.49-8.27l.69-.84.19,1.07c1.66,9.48-4.54,11.9-9.34,12.9A19.94,19.94,0,0,1,43.27,73.81ZM34.85,66c1.73,5.76,5.55,7.71,12.24,6.33s9.41-4.7,8.71-10.67a45.69,45.69,0,0,1-8.94,7.61,1.1,1.1,0,0,1-.37.16,1.13,1.13,0,0,1-.41,0A45.25,45.25,0,0,1,34.85,66Z"/><path class="cls-3" d="M38.11,86.82a3.47,3.47,0,0,1-3.27-2.18A53.33,53.33,0,0,1,32.94,79l-.14-.47C29.73,75.64,28,71.7,27.23,66.2c-3,1.62-5.19,1.87-6.79.81a3.79,3.79,0,0,1-1.65-3.07,4.42,4.42,0,0,1,2.1-3.63,25.71,25.71,0,0,0,3.22-2.6c-.32-.22-.64-.46-.93-.7-6.1-.59-10.52-2.07-12.12-4.08a3,3,0,0,1-.45-3.21A86.47,86.47,0,0,1,14.94,42c1.06-1.75,2.24-3.73,3.37-5.72a22.8,22.8,0,0,1,.08-3.78,1.41,1.41,0,0,1,0-.25,24.29,24.29,0,0,1,1.75-6.63C18.38,22,16.44,14.71,22.52,5a1,1,0,0,1,1.24-.44,1.06,1.06,0,0,1,.7,1.13c-.62,5-.41,9.21.62,12.52a18.81,18.81,0,0,1,9.64-5.45,18.86,18.86,0,0,1,11,1.16c-.37-3.44-1.85-7.38-4.41-11.73A1.06,1.06,0,0,1,41.52.85a1.08,1.08,0,0,1,1.32-.1c9.45,6.52,10.58,14,10.36,18a25.26,25.26,0,0,1,4.29,5.46,1,1,0,0,1,.11.21,21.93,21.93,0,0,1,1.55,3.37c1.8,1.36,3.61,2.66,5.36,3.91a87.56,87.56,0,0,1,7,5.37h0a3,3,0,0,1,.86,3.12c-.67,2.48-4.13,5.59-9.5,8.56-.17.34-.37.69-.57,1a27.2,27.2,0,0,0,4,1.1,4.41,4.41,0,0,1,3.37,2.5,3.74,3.74,0,0,1-.29,3.47c-1,1.61-3.14,2.24-6.55,2,1.52,5.34,1.45,9.66-.22,13.53l.06.49a50.82,50.82,0,0,1,.5,5.93,3.5,3.5,0,0,1-2.51,3.45l-.43.11a3.52,3.52,0,0,1-3.53-1.12,19.58,19.58,0,0,1-2-3.7,38.79,38.79,0,0,1-6.23,1.77,39.51,39.51,0,0,1-6.42.85,19.51,19.51,0,0,1-.34,4.18,3.59,3.59,0,0,1-3.24,2.5ZM28.05,64.58l.08.76c.64,5.71,2.37,9.7,5.45,12.55l.11.09.21.73a49.63,49.63,0,0,0,1.86,5.52,2.5,2.5,0,0,0,2.66,1.58,2.66,2.66,0,0,0,2.36-1.72,20.31,20.31,0,0,0,.32-4.46v-.5h.5a36.33,36.33,0,0,0,6.73-.84,36.3,36.3,0,0,0,6.5-1.9l.46-.2.19.46a20.31,20.31,0,0,0,2.07,4,2.57,2.57,0,0,0,2.52.72l.32-.09a2.5,2.5,0,0,0,1.82-2.5A50.84,50.84,0,0,0,61.71,73l-.09-.78.05-.13c1.7-3.84,1.71-8.18,0-13.67l-.22-.73.76.08c3.44.4,5.45-.05,6.34-1.42a2.75,2.75,0,0,0,.21-2.54,3.44,3.44,0,0,0-2.65-1.91A27.64,27.64,0,0,1,61.4,50.5l-.59-.23.36-.52a13.09,13.09,0,0,0,.93-1.56l.07-.15L62.3,48c5.13-2.82,8.56-5.82,9.16-8a2,2,0,0,0-.57-2.11,86.6,86.6,0,0,0-7-5.29c-1.72-1.23-3.66-2.62-5.5-4l-.12-.09-.05-.14a21.36,21.36,0,0,0-1.56-3.42l-.05-.09a23.66,23.66,0,0,0-4.31-5.44l-.17-.16v-.24c.26-3.75-.68-11-9.91-17.36l-.51.32.43-.25c2.85,4.84,4.4,9.21,4.62,13l0,.83-.75-.34a18,18,0,0,0-11.18-1.43,18,18,0,0,0-9.69,5.75l-.56.62-.28-.78c-1.3-3.57-1.62-8.2-.93-13.77l-.53-.3.42.27C17.42,15,19.44,22,21.17,25.37l.11.21-.09.22a23.66,23.66,0,0,0-1.78,6.65l-.52.08.5,0a22.12,22.12,0,0,0-.08,3.8v.15l-.07.13c-1.15,2-2.37,4.08-3.45,5.87a87.3,87.3,0,0,0-4.28,7.63,2,2,0,0,0,.32,2.16c1.43,1.79,5.76,3.18,11.59,3.73h.15l.12.1a12,12,0,0,0,1.47,1.07l.54.34-.45.44a26.9,26.9,0,0,1-3.8,3.14,3.46,3.46,0,0,0-1.67,2.8A2.76,2.76,0,0,0,21,66.18c1.36.9,3.39.52,6.39-1.21ZM38.12,85.71a2.38,2.38,0,0,1-2.26-1.52A50.84,50.84,0,0,1,34,78.68l-.22-.75c-3.3-3-5.08-7.26-5.64-13.46-3.39,2-5.69,2.55-7.1,1.62a2.71,2.71,0,0,1-1.14-2.16,3.2,3.2,0,0,1,1.62-2.71A27.42,27.42,0,0,0,25.44,58l.41-.41.35.47a23,23,0,0,0,8.11,6.63,43.37,43.37,0,0,0,11.95,3.83,42.85,42.85,0,0,0,9.49-8.27,23,23,0,0,0,4.81-9.32l.13-.56.54.21A26.9,26.9,0,0,0,66.11,52h0a3.25,3.25,0,0,1,2.57,1.84,2.69,2.69,0,0,1-.2,2.44c-.92,1.41-3.24,1.82-7.1,1.26,1.9,6,2,10.61.13,14.64l.09.8a50.82,50.82,0,0,1,.49,5.79,2.4,2.4,0,0,1-1.74,2.4,2.55,2.55,0,0,1-2.72-.6,21.37,21.37,0,0,1-2.27-4.47,37.09,37.09,0,0,1-7.07,2.1A32.64,32.64,0,0,1,41,79a25.73,25.73,0,0,1-.37,5.06,2.48,2.48,0,0,1-2.26,1.62Zm-10-22.29a1.12,1.12,0,0,1,.47.11,1,1,0,0,1,.58.85c.53,5.93,2.21,10,5.29,12.79a1,1,0,0,1,.31.48l.22.75a49.33,49.33,0,0,0,1.81,5.39,1.39,1.39,0,0,0,1.53.91c.7-.07,1.31-.5,1.38-.84A20.83,20.83,0,0,0,40,79.08,1,1,0,0,1,41.07,78a32.44,32.44,0,0,0,7-.81,31.62,31.62,0,0,0,6.76-2,1.13,1.13,0,0,1,.24-.08,1.05,1.05,0,0,1,1.19.63A20.72,20.72,0,0,0,58.44,80a1.64,1.64,0,0,0,1.6.23,1.4,1.4,0,0,0,1.05-1.45,51.85,51.85,0,0,0-.48-5.67l-.1-.77a1.11,1.11,0,0,1,.09-.57c1.72-3.78,1.64-8.18-.23-13.83a1.06,1.06,0,0,1,1.16-1.38c4.21.62,5.65-.1,6.11-.82a1.65,1.65,0,0,0,.11-1.5A2.33,2.33,0,0,0,65.91,53h0a29,29,0,0,1-4.52-1.27,24.18,24.18,0,0,1-4.87,9.16,43.91,43.91,0,0,1-9.66,8.46,1.1,1.1,0,0,1-.37.16,1.13,1.13,0,0,1-.41,0,44,44,0,0,1-12.23-3.92,24.39,24.39,0,0,1-8.11-6.47,27.89,27.89,0,0,1-3.64,3,2.33,2.33,0,0,0-1.19,1.88,1.63,1.63,0,0,0,.7,1.33c.71.47,2.31.56,5.93-1.67A1,1,0,0,1,28.1,63.42Zm18.16,5-.2,0c-8.48-1.57-14.77-4.62-18.72-9.07l-1.2-1.36,1.73.55c4.13,1.31,9.45.65,16.18-.74S55.92,54.81,59.19,52l1.37-1.19L60,52.5c-1.85,5.65-6.42,11-13.57,15.76Zm-17-8.53c3.8,3.58,9.42,6.1,16.75,7.48,6.18-4.19,10.34-8.72,12.4-13.52-3.41,2.31-8.19,3.65-14.19,4.9S33.33,60.6,29.29,59.84Zm3.83-.79a15.77,15.77,0,0,1-6.56-1.23c-.38-.18-.72-.35-1-.54l.16-.48-.25.43-.21-.13a12.3,12.3,0,0,1-1.74-1.3,15.08,15.08,0,0,1-1.19-1.21,14.12,14.12,0,0,1-2.53-4.23c-1.42-3.68-1.58-8.28-.45-13.3l.11-.46.46.07a46.94,46.94,0,0,0,7.62.52c1.09,0,2.2,0,3.3-.1A61.13,61.13,0,0,0,39.55,36,61.55,61.55,0,0,0,48,33.53c1-.39,2.08-.8,3.07-1.23a47.13,47.13,0,0,0,6.78-3.5l.4-.26.28.38c3,4.16,4.72,8.45,4.88,12.39a14.3,14.3,0,0,1-.64,4.88,14.92,14.92,0,0,1-.59,1.56h0a11.9,11.9,0,0,1-1,1.87c-.07.1-.14.19-.2.29-.27.36-.51.65-.76.94-2.7,2.95-7.53,5-16.19,6.76A56.13,56.13,0,0,1,33.12,59.05ZM20.19,37.73A21.82,21.82,0,0,0,20.69,50,13.33,13.33,0,0,0,23,53.93a13,13,0,0,0,1.11,1.12,10.44,10.44,0,0,0,1.6,1.2l.27.17a9.94,9.94,0,0,0,.92.47c4.09,1.85,9.49,1.27,16.88-.26,8.44-1.75,13.11-3.67,15.63-6.42.26-.29.47-.55.67-.82l.23-.33a10.27,10.27,0,0,0,.92-1.71h0a13.86,13.86,0,0,0,.56-1.46,13.34,13.34,0,0,0,.59-4.54A21.86,21.86,0,0,0,58,29.89a48.78,48.78,0,0,1-6.53,3.33c-1,.43-2,.85-3.12,1.24A61.48,61.48,0,0,1,39.75,37a61.65,61.65,0,0,1-8.89,1.11c-1.12.06-2.25.09-3.35.1A50.5,50.5,0,0,1,20.19,37.73ZM23.34,55.9,22,55.74c-5.12-.63-8.8-1.91-10.07-3.51h0a1.85,1.85,0,0,1-.31-2,86.91,86.91,0,0,1,4.27-7.6c.63-1,1.27-2.11,1.9-3.19l.93.33c-.86,6.19.34,11.36,3.48,14.94ZM17.5,41.84l-.74,1.24a85.87,85.87,0,0,0-4.23,7.52.85.85,0,0,0,.18,1h0c1,1.23,4,2.33,8.13,3C18.32,51.29,17.19,46.94,17.5,41.84Zm44.83,6,.55-1.59c1.46-4.54.51-9.76-2.74-15.1l.72-.67q1.52,1.11,3,2.16c2.74,2,5.32,3.81,7,5.29a1.88,1.88,0,0,1,.53,2c-.54,2-3.4,4.6-7.85,7.22ZM62.1,32.59c2.32,4.56,3,9,2,13,3.5-2.2,5.87-4.43,6.28-6h0a.85.85,0,0,0-.24-1c-1.59-1.44-4.15-3.27-6.86-5.21ZM27.23,37.08c-1.57,0-3.1-.06-4.54-.18-.56,0-1.11-.1-1.63-.17s-.84-.11-1.24-.18l-.39-.07,0-.55.49-.08-.5,0v-.22a18.9,18.9,0,0,1,.05-2.5l0-.55.55.1c1.17.22,2.35.4,3.5.53.66.09,1.32.15,2,.2,1,.08,2,.13,3,.15a46.77,46.77,0,0,0,10.22-1l.27-.06a46.91,46.91,0,0,0,9.77-3.14c.91-.41,1.81-.86,2.67-1.32.58-.31,1.16-.63,1.74-1,1-.58,2-1.21,3-1.88l.46-.31.26.49a20.26,20.26,0,0,1,1,2.27l.29.79-.33.21c-.34.22-.7.44-1.07.66s-.93.54-1.43.8a63.07,63.07,0,0,1-15.84,5.77A63.29,63.29,0,0,1,27.23,37.08Zm-6.85-1.45.8.11,1.6.16a61.56,61.56,0,0,0,16.54-1A61.77,61.77,0,0,0,54.9,29.24c.48-.26,1-.52,1.39-.78L57,28v0c-.22-.57-.47-1.13-.74-1.67-.86.57-1.73,1.11-2.59,1.61-.59.34-1.18.67-1.77,1-.88.48-1.8.93-2.73,1.35a46.8,46.8,0,0,1-10,3.21l-.27.06a47.55,47.55,0,0,1-10.44,1c-1,0-2-.07-3-.15-.67,0-1.34-.12-2-.2-1-.12-2-.27-3-.45,0,.6,0,1.22,0,1.83Zm8.71-2.16c-.59,0-1.17,0-1.76,0s-1.42-.07-2.14-.14A51.63,51.63,0,0,1,20,32.57l-.46-.09.06-.47A23,23,0,0,1,21,26.62l.36-.91.53.83a14,14,0,0,0,1.38,1.82,13.7,13.7,0,0,0,6.66,4.12l-.12,1Zm-8.47-1.8c1.59.29,3.12.49,4.66.63.54.05,1.09.08,1.63.11A14.56,14.56,0,0,1,22.49,29c-.32-.36-.64-.74-.93-1.14A21.1,21.1,0,0,0,20.62,31.67Zm13.66,1.26a14.18,14.18,0,0,1-11-4.64,14.77,14.77,0,0,1-1.8-2.46,14,14,0,0,1-.66-1.28c-2.93-6.43-.44-13.21,1.3-16.68l.94.26A26.73,26.73,0,0,0,24.51,19.9q.24.59.51,1.11a11.76,11.76,0,0,0,2.53,3.43A11.16,11.16,0,0,0,37.66,26.9,11.15,11.15,0,0,0,46,20.62a11.91,11.91,0,0,0,1-4.15c0-.39,0-.8,0-1.22A26.54,26.54,0,0,0,43.56,3.89l.76-.61c3,2.49,8,7.72,7.83,14.79a13.55,13.55,0,0,1-.1,1.43,15.36,15.36,0,0,1-.67,3c-1.73,5.15-6,8.59-12.45,10h0l-.12,0h0l-.1,0h0A22.27,22.27,0,0,1,34.28,32.93ZM22,10.68c-1.37,3.54-2.44,8.63-.24,13.46.18.4.39.8.61,1.19a14.33,14.33,0,0,0,1.68,2.29c3.4,3.78,8.42,5.11,14.53,3.85h0c6.12-1.27,10.2-4.48,11.82-9.3a15.08,15.08,0,0,0,.63-2.78c0-.44.08-.89.09-1.33.1-5.3-2.91-9.55-5.57-12.25a24.87,24.87,0,0,1,2.36,9.42c0,.46,0,.89,0,1.31A12.75,12.75,0,0,1,46.87,21a12.13,12.13,0,0,1-9,6.85,12.1,12.1,0,0,1-11-2.71,12.72,12.72,0,0,1-2.75-3.71c-.19-.37-.37-.77-.54-1.19A24.87,24.87,0,0,1,22,10.68ZM47.52,29.79,47,28.93a13.63,13.63,0,0,0,4.47-6.42A13.46,13.46,0,0,0,52,20.28l.16-1,.69.7a22.9,22.9,0,0,1,3.43,4.39l.24.4-.39.27c-1.51,1-3,1.91-4.51,2.74-.63.34-1.27.67-1.91,1S48.26,29.47,47.52,29.79Zm5.31-8.39a13.08,13.08,0,0,1-.4,1.43,14.62,14.62,0,0,1-2.71,4.85c.49-.24,1-.49,1.45-.75,1.36-.74,2.69-1.53,4-2.42A21.47,21.47,0,0,0,52.83,21.4Zm-18,5.68a10.5,10.5,0,0,1-7.24-2.72,12.33,12.33,0,0,1-2.74-3.86l-.13-.29L25,20a18.16,18.16,0,0,1,10-6.15h0a18.14,18.14,0,0,1,11.6,1.68l.29.14V16a12.22,12.22,0,0,1-1,4.63,11,11,0,0,1-8.22,6.21A13.38,13.38,0,0,1,34.87,27.08Zm-8.93-6.71a10.83,10.83,0,0,0,2.37,3.25,10.05,10.05,0,0,0,9.13,2.19,10,10,0,0,0,7.5-5.64,10.63,10.63,0,0,0,.88-3.92,17.11,17.11,0,0,0-10.67-1.46h0A17.1,17.1,0,0,0,25.94,20.37Z"/><polygon class="cls-3" points="38.69 32.47 38.48 31.49 38.73 31.44 38.93 32.42 38.69 32.47"/><path class="cls-3" d="M34.22,50a.87.87,0,0,1-.53-.18,4.49,4.49,0,0,1-1.57-2,6,6,0,0,1-.41-2c-.23-4.83,4.06-7.45,8.15-8.3s9.08-.14,10.79,4.38h0a5.91,5.91,0,0,1,.4,2,4.5,4.5,0,0,1-.78,2.71.89.89,0,0,1-.57.39.92.92,0,0,1-1-1.41,3.07,3.07,0,0,0,.18-3,5.38,5.38,0,0,0-4.86-3.44c-.4,1.6-1.4,3.29-3.12,3.64s-3.31-.79-4.32-2.09a5.36,5.36,0,0,0-3.09,5.08,3.15,3.15,0,0,0,1.22,2.6A.92.92,0,0,1,35,49.61a.94.94,0,0,1-.6.36ZM37.05,39.5l.14.22c.8,1.18,2.16,2.34,3.55,2s2.18-1.89,2.45-3.28l0-.26a13.33,13.33,0,0,0-3.16.28A13.06,13.06,0,0,0,37.05,39.5Z"/><path class="cls-3" d="M51,41a2.6,2.6,0,0,1-1.27-.32,3.36,3.36,0,0,1-1.51-2.19c-.38-1.47-.33-3.29,1-4,1.79-.93,3.76.22,4.64,1.87a3.25,3.25,0,0,1,.22,2.74,3,3,0,0,1-1.93,1.67h0A3.5,3.5,0,0,1,51,41Zm-.47-5.81a1.91,1.91,0,0,0-.88.22c-.73.38-.76,1.7-.46,2.83a2.39,2.39,0,0,0,1,1.56,2,2,0,0,0,1.6.06h0a1.94,1.94,0,0,0,1.3-1.1A2.24,2.24,0,0,0,53,36.9,3,3,0,0,0,50.55,35.22Z"/><path class="cls-3" d="M29.54,45.47a2.91,2.91,0,0,1-2.05-.79,3.26,3.26,0,0,1-.88-2.61c.15-1.86,1.5-3.7,3.51-3.56,1.45.11,2.22,1.75,2.46,3.26a3.35,3.35,0,0,1-.52,2.6,2.9,2.9,0,0,1-2.13,1.07A2.56,2.56,0,0,1,29.54,45.47Zm.36-6c-1.44,0-2.21,1.52-2.3,2.64A2.25,2.25,0,0,0,28.19,44a2,2,0,0,0,1.64.49h0a2,2,0,0,0,1.44-.69,2.45,2.45,0,0,0,.32-1.84c-.18-1.15-.73-2.35-1.55-2.41Z"/><path class="cls-3" d="M39.25,46.74a2.69,2.69,0,0,1-2-.9.9.9,0,0,1-.24-.66.92.92,0,0,1,.3-.64,1,1,0,0,1,.66-.23.92.92,0,0,1,.64.3.77.77,0,0,0,.75.27c.38-.09.7-.56.88-1.28a.93.93,0,0,1,.7-.68.92.92,0,0,1,.92.34c.45.59.93.9,1.32.83a.77.77,0,0,0,.58-.55A.9.9,0,0,1,45,43h0a.92.92,0,0,1,.58,1.16,2.63,2.63,0,0,1-2,1.77,2.72,2.72,0,0,1-2-.5,2.77,2.77,0,0,1-1.66,1.26l-.11,0A2.52,2.52,0,0,1,39.25,46.74Z"/><path class="cls-3" d="M50.35,38.21a1.19,1.19,0,0,1-.69-.2A1.49,1.49,0,0,1,49,37a1.4,1.4,0,0,1,.64-1.71,1.35,1.35,0,0,1,1.08,0,1.67,1.67,0,0,1,.92,1,1.48,1.48,0,0,1,0,1.24,1.35,1.35,0,0,1-1,.66A1.32,1.32,0,0,1,50.35,38.21Zm-.16-2.05-.12,0h0c-.1.05-.13.31-.07.6a.59.59,0,0,0,.2.38.31.31,0,0,0,.26,0,.49.49,0,0,0,.3-.16.62.62,0,0,0,0-.43.72.72,0,0,0-.37-.41A.38.38,0,0,0,50.19,36.16Z"/><path class="cls-3" d="M29.86,42.45a1.29,1.29,0,0,1-.81-.26,1.51,1.51,0,0,1-.51-1.13A1.7,1.7,0,0,1,29,39.79a1.29,1.29,0,0,1,1-.43c.62,0,1.1.5,1.27,1.32a1.48,1.48,0,0,1-.18,1.19,1.33,1.33,0,0,1-.88.55Zm.1-2.09a.31.31,0,0,0-.24.12.67.67,0,0,0-.18.52.61.61,0,0,0,.13.41.57.57,0,0,0,.34,0,.36.36,0,0,0,.23-.13.63.63,0,0,0,0-.43c-.07-.3-.2-.52-.31-.52h0Z"/><path class="cls-3" d="M38.7,41a1,1,0,0,1-.82-.41,1,1,0,0,1-.14-1c.14-.33.5-.74,1.46-.87,1.27-.17,1.45.5,1.48.7.09.69-.77,1.42-1.84,1.57H38.7Zm.79-1.3h-.16c-.51.07-.65.23-.66.26l0,0A1.84,1.84,0,0,0,39.49,39.67Z"/><path class="cls-3" d="M28.09,24.43a1.93,1.93,0,0,1-1.54-3.14,11.34,11.34,0,0,0,1.67-4.18,17.59,17.59,0,0,0,.22-3.17,1.93,1.93,0,0,1-1.5-.4A2,2,0,0,1,26.19,12a2.1,2.1,0,0,1,1.75-2.15l1-.21c0-.27,0-.51-.07-.67a2,2,0,0,1,1.6-2.26c2-.42,2.82-.07,3.27.29a1.86,1.86,0,0,1,.59.8,5.71,5.71,0,0,0,.14-.64,2.06,2.06,0,0,1,2-1.73,4.37,4.37,0,0,1,2.84.74,2.1,2.1,0,0,1,.45.62,2.43,2.43,0,0,1,1.44-1,3.47,3.47,0,0,1,2.57.86h0a2.43,2.43,0,0,1,1,1.78,1.33,1.33,0,0,1,.05.34,1.81,1.81,0,0,1-1.43,1.75s0,.06,0,.1A2.91,2.91,0,0,1,45,12.81a1.55,1.55,0,0,1-.06.95,1.57,1.57,0,0,1-1.27,1,1.82,1.82,0,0,1-.4.11c-.37.31-.73.59-1.07.83a3.08,3.08,0,0,0,1.52.72,2,2,0,0,1,1.69,1.68s0,.09,0,.15a1.77,1.77,0,0,1,0,.2,1.61,1.61,0,0,1-1.07,1.67c-.2.1-.23.15-.25.18a1.79,1.79,0,0,1-1.29.87,2.29,2.29,0,0,1-1.68-.1A6.48,6.48,0,0,1,39.42,20q0,.39,0,.57a2.09,2.09,0,0,1-1.82,2.06l-.38.1a2.09,2.09,0,0,1-1.77-.38,1.9,1.9,0,0,1-.55-.67,3.64,3.64,0,0,1-2.34,1.62l-.41.11a2.3,2.3,0,0,1-1.77-.27,7.16,7.16,0,0,1-.57.65,1.91,1.91,0,0,1-1.05.56A2.13,2.13,0,0,1,28.09,24.43Zm1.33-11.7v.6a20.06,20.06,0,0,1-.23,4,12.22,12.22,0,0,1-1.83,4.56,1,1,0,0,0,1.12,1.51l.13,0a.82.82,0,0,0,.48-.24,11.28,11.28,0,0,0,.83-1l.37-.51.41.47A1.18,1.18,0,0,0,32,22.4l.21,0,.06-.06h.16a2.84,2.84,0,0,0,2-1.8,5.31,5.31,0,0,0,.27-.89l1,.1V20c0,.28,0,.5,0,.66a1.13,1.13,0,0,0,.41.89,1.1,1.1,0,0,0,.95.19,2,2,0,0,0,.29-.08l.12,0a1.07,1.07,0,0,0,1-1c0-.15,0-.4,0-.73l-.14-3,1,1.42a5.42,5.42,0,0,0,2.27,1.91,1.27,1.27,0,0,0,1,.05l.14,0a.8.8,0,0,0,.6-.43,1.42,1.42,0,0,1,.65-.53c.38-.18.55-.39.51-.65l0-.24a.41.41,0,0,0,0-.12c0-.19-.16-.66-.89-.81A4,4,0,0,1,41,16l-.34-.43.45-.3A17.14,17.14,0,0,0,42.69,14l.12-.1.15,0a1,1,0,0,0,.35-.09l.11,0A.64.64,0,0,0,44,13.4.5.5,0,0,0,44,13l0-.15c0-.52-.5-1.1-1.3-1.53l-.3-.16,0-.33a.49.49,0,0,0,0-.21l0-.15a.78.78,0,0,0,0-.22l-.11-.46.44-.14c.77-.17,1.16-.49,1.15-.88a.35.35,0,0,0,0-.14l0-.16a1.37,1.37,0,0,0-.66-1.06h0a2.54,2.54,0,0,0-1.75-.67c-.39.08-.71.38-1.22,1.16L40,8.11l-1,.21-.13-.72a.86.86,0,0,0-.3-.67,3.23,3.23,0,0,0-2.09-.48,1.05,1.05,0,0,0-1,.85,8.9,8.9,0,0,1-.33,1.38L35,9.23,34.43,9a1.61,1.61,0,0,0-.55-.18l-.37-.05-.06-.37a.91.91,0,0,0-.33-.58,3.27,3.27,0,0,0-2.45-.09,1,1,0,0,0-.81,1.13c0,.26.08.71.11,1.2l0,.43-1.85.38A1.12,1.12,0,0,0,27.19,12a1,1,0,0,0,.37.77,1.08,1.08,0,0,0,.9.17Z"/><path class="cls-3" d="M28.1,23.47a1,1,0,0,1-.65-.24,1,1,0,0,1-.09-1.41,12.37,12.37,0,0,0,1.82-4.54,20.74,20.74,0,0,0,.2-4.51l-.91.19a1.11,1.11,0,0,1-.93-.18,1,1,0,0,1-.38-.79,1.14,1.14,0,0,1,1-1.17L30,10.44a13.14,13.14,0,0,0-.13-1.6,1,1,0,0,1,.84-1.16,3.27,3.27,0,0,1,2.47.1,1,1,0,0,1,.35.7,1.06,1.06,0,0,1,0,.32l.08,0a1.93,1.93,0,0,1,1.36.45,9.78,9.78,0,0,0,.53-1.9,1.08,1.08,0,0,1,1.06-.91,3.58,3.58,0,0,1,2.1.48,1,1,0,0,1,.31.66,1,1,0,0,1-.35.83L40,8.09c.52-.83.87-1.24,1.33-1.34.72-.15,1.67.59,1.78.68a1.47,1.47,0,0,1,.67,1.07c0,.3-.12,1-1.48,1.31l-.17,0a1,1,0,0,1,.19,1,.78.78,0,0,1-.16.32.93.93,0,0,1,.33.12c.68.32,1.79,1.13,1.41,2a1.14,1.14,0,0,1-1.27.68,16.67,16.67,0,0,1-2,1.48,4.09,4.09,0,0,0,2.81,2c.75.15.89.63.91.84s0,.74-.75,1.09a1.11,1.11,0,0,0-.48.37,1.23,1.23,0,0,1-1.65.5,6.21,6.21,0,0,1-3.26-3.86v.22c0,1.29.08,2.27.12,2.92,0,.37,0,.61,0,.77a1.53,1.53,0,0,1-1.37,1.5,1.09,1.09,0,0,1-1.39-1.11c0-.18,0-.45,0-.8,0-.66,0-1.66,0-3l-.05-1.64-.47.19-.08,0a14.83,14.83,0,0,1-.64,4.93A3.23,3.23,0,0,1,32,22.43a1.24,1.24,0,0,1-1.4-.48l-.1,0a1.15,1.15,0,0,1-.43-.21A11.08,11.08,0,0,1,29,23.08,1.27,1.27,0,0,1,28.1,23.47Zm2.21-11.92,0,.57a22.7,22.7,0,0,1-.19,5.34,13.21,13.21,0,0,1-2,4.93.44.44,0,0,0-.05.09,1.15,1.15,0,0,0,.13-.1,10.75,10.75,0,0,0,2.59-5.23,17.76,17.76,0,0,0,.27-2.52l0-.38,2.15-.45,0,.57c.11,1.56.06,4.29-.49,5.43a1.4,1.4,0,0,1-1,.92,5.62,5.62,0,0,1-1,.13.34.34,0,0,0-.18.06s0,0,.13.06a1,1,0,0,1,.61.36c.11.15.13.18.4.12A2.23,2.23,0,0,0,33.44,20,14.22,14.22,0,0,0,34,15V14.4l.4.06.16-.91-.09-.07-.1-.07L34,13.19l-.35-.07a.55.55,0,0,0-.19,0s-.11,0-.4.45l-.11.16-1.81.37,0-.62V11.94l.34-.12c.12,0,.32-.12.33-.23l0-.36,2.36-.49.16,0,.42-.13-.13-.18a1.3,1.3,0,0,0-.29-.28,1.71,1.71,0,0,0-.66-.35s-.19.11-.66.89l-.11.19-1.27.26-.06-2L32,9c.37-.17.55-.31.54-.45a5.66,5.66,0,0,0-1.62.15c0,.48.09,1.37.1,2.18v.41l-2.64.55c-.18,0-.18.1-.18.16s0,0,.11,0Zm6.2,2.09.09,3.17c0,1.35,0,2.36,0,3,0,.34,0,.6,0,.77a.29.29,0,0,0,0,.16.3.3,0,0,0,.15,0c.22-.05.59-.17.58-.49,0-.15,0-.39,0-.71,0-.7-.09-1.68-.12-3l-.09-2.92.29-.14a.52.52,0,0,0,.22-.16l.71-1.13.21,1.32c.47,3.07,1.56,4.94,3.31,5.73.25.1.3.05.41-.14a2.21,2.21,0,0,1,.88-.72l.1-.05h0a5.13,5.13,0,0,1-3.74-2.89l-.21-.43.41-.23a15.6,15.6,0,0,0,2.39-1.76l.17-.15.23,0c.26,0,.41,0,.43,0s-.46-.55-.94-.77v0l-.1.05a14.36,14.36,0,0,1-2,2.26L39.3,15l-.23-.74a9.89,9.89,0,0,1-.38-1.68l0-.29.24-.18a19.14,19.14,0,0,0,1.67-1.39l.17-.16.23,0c.3,0,.41,0,.42-.06s-.21-.29-.63-.48l-.29-.14-.19.22a17.39,17.39,0,0,1-5,3.94l-.75.42h0a.32.32,0,0,0,.16,0c.37-.14.73-.31,1.08-.48Zm-4.42,1.43a15.9,15.9,0,0,1-.26,2.28,12.43,12.43,0,0,1-.76,2.48,4.2,4.2,0,0,0,.53-.09c.07,0,.2,0,.32-.34A12.83,12.83,0,0,0,32.36,15Zm7.64-2.35c0,.15.05.3.08.44a11.36,11.36,0,0,0,1.3-1.53l0,0h0C40.76,11.89,40.29,12.29,39.73,12.72Zm-7.56-.1v.23l.21,0a1.55,1.55,0,0,1,.88-.69l.16,0,0-.07a.57.57,0,0,0,.08-.13l-.81.17A1.29,1.29,0,0,1,32.17,12.62Zm4.69-1.68a11.45,11.45,0,0,1-1.29,1.8,18.52,18.52,0,0,0,2.85-2.12Zm-1.67.11-.2.36c-.21.38-.43.77-.68,1.15l0,.06,0,0,.08-.06a11,11,0,0,0,1.7-2.27l.11-.2,5.89-1.22c.51-.1.67-.27.68-.31h0s0-.1-.29-.31h0a2.17,2.17,0,0,0-1-.48c-.06,0-.26.19-.8,1.07L40.63,9l-4.27.88L36.77,9l.37-.85.09-.23.24-.06c.16,0,.43-.13.43-.24a3.76,3.76,0,0,0-1.36-.17c-.11,0-.12,0-.13.08a10.69,10.69,0,0,1-.87,2.79l0,.06h.06l-.38.73Z"/><path class="cls-3" d="M38.62,64.59l-.33,0-.35-.06-.3-1.45.74.14a1.31,1.31,0,0,0,.52,0c0,.07,0-.05,0-.24l-.46-2.24,1.42-.29.48,2.35a1.32,1.32,0,0,1-1.14,1.74A2.72,2.72,0,0,1,38.62,64.59Z"/><polygon class="cls-3" points="39.81 64.36 40.32 60.33 41.47 60.09 43.54 63.59 42.04 63.9 41.66 63.2 41.36 63.27 41.29 64.05 39.81 64.36"/><path class="cls-3" d="M43.52,63.58a2,2,0,0,1-.55-.07l-.3-.08-.33-1.63.25.11a1.3,1.3,0,0,1-.26-1.7,1.4,1.4,0,0,1,.85-.51,2.56,2.56,0,0,1,1,0l.33.06.32,1.56-.15-.05a1.34,1.34,0,0,1,.2,1.76,1.63,1.63,0,0,1-.95.52A2.25,2.25,0,0,1,43.52,63.58Z"/><path class="cls-3" d="M44.93,63.3l-.78-3.76,1.25-.26a1.92,1.92,0,0,1,1.21.06,1.21,1.21,0,0,1,.69.91,1.32,1.32,0,0,1-.22,1.15,1.61,1.61,0,0,1-1,.56l.22,1Zm.89-2.73,0,.08.1,0S45.91,60.57,45.82,60.57Z"/><polygon class="cls-3" points="47.27 62.81 46.49 59.05 49.15 58.5 49.42 59.83 49.34 59.84 49.57 60.96 49.65 60.94 49.92 62.26 47.27 62.81"/><path class="cls-3" d="M49.53,62.35l-.78-3.77,1.17-.24a2.07,2.07,0,0,1,1.23,0,1.15,1.15,0,0,1,.7.86,1.34,1.34,0,0,1-.08.82c0,.05-.05.1-.08.14l.09.13.9,1.37L51.19,62l-.4-.62.14.68Z"/><path class="cls-3" d="M38.62,64.59l-.33,0-.35-.06-.3-1.45.74.14a1.31,1.31,0,0,0,.52,0c0,.07,0-.05,0-.24l-.46-2.24,1.42-.29.48,2.35a1.32,1.32,0,0,1-1.14,1.74A2.72,2.72,0,0,1,38.62,64.59Z"/><polygon class="cls-3" points="39.81 64.36 40.32 60.33 41.47 60.09 43.54 63.59 42.04 63.9 41.66 63.2 41.36 63.27 41.29 64.05 39.81 64.36"/><path class="cls-3" d="M43.52,63.58a2,2,0,0,1-.55-.07l-.3-.08-.33-1.63.25.11a1.3,1.3,0,0,1-.26-1.7,1.4,1.4,0,0,1,.85-.51,2.56,2.56,0,0,1,1,0l.33.06.32,1.56-.15-.05a1.34,1.34,0,0,1,.2,1.76,1.63,1.63,0,0,1-.95.52A2.25,2.25,0,0,1,43.52,63.58Z"/><path class="cls-3" d="M44.93,63.3l-.78-3.76,1.25-.26a1.92,1.92,0,0,1,1.21.06,1.21,1.21,0,0,1,.69.91,1.32,1.32,0,0,1-.22,1.15,1.61,1.61,0,0,1-1,.56l.22,1Zm.89-2.73,0,.08.1,0S45.91,60.57,45.82,60.57Z"/><polygon class="cls-3" points="47.27 62.81 46.49 59.05 49.15 58.5 49.42 59.83 49.34 59.84 49.57 60.96 49.65 60.94 49.92 62.26 47.27 62.81"/><path class="cls-3" d="M49.53,62.35l-.78-3.77,1.17-.24a2.07,2.07,0,0,1,1.23,0,1.15,1.15,0,0,1,.7.86,1.34,1.34,0,0,1-.08.82c0,.05-.05.1-.08.14l.09.13.9,1.37L51.19,62l-.4-.62.14.68Z"/><path class="cls-3" d="M38.62,64.59l-.33,0-.35-.06-.3-1.45.74.14a1.31,1.31,0,0,0,.52,0c0,.07,0-.05,0-.24l-.46-2.24,1.42-.29.48,2.35a1.32,1.32,0,0,1-1.14,1.74A2.72,2.72,0,0,1,38.62,64.59Z"/><polygon class="cls-3" points="39.81 64.36 40.32 60.33 41.47 60.09 43.54 63.59 42.04 63.9 41.66 63.2 41.36 63.27 41.29 64.05 39.81 64.36"/><path class="cls-3" d="M43.52,63.58a2,2,0,0,1-.55-.07l-.3-.08-.33-1.63.25.11a1.3,1.3,0,0,1-.26-1.7,1.4,1.4,0,0,1,.85-.51,2.56,2.56,0,0,1,1,0l.33.06.32,1.56-.15-.05a1.34,1.34,0,0,1,.2,1.76,1.63,1.63,0,0,1-.95.52A2.25,2.25,0,0,1,43.52,63.58Z"/><path class="cls-3" d="M44.93,63.3l-.78-3.76,1.25-.26a1.92,1.92,0,0,1,1.21.06,1.21,1.21,0,0,1,.69.91,1.32,1.32,0,0,1-.22,1.15,1.61,1.61,0,0,1-1,.56l.22,1Zm.89-2.73,0,.08.1,0S45.91,60.57,45.82,60.57Z"/><polygon class="cls-3" points="47.27 62.81 46.49 59.05 49.15 58.5 49.42 59.83 49.34 59.84 49.57 60.96 49.65 60.94 49.92 62.26 47.27 62.81"/><path class="cls-3" d="M49.53,62.35l-.78-3.77,1.17-.24a2.07,2.07,0,0,1,1.23,0,1.15,1.15,0,0,1,.7.86,1.34,1.34,0,0,1-.08.82c0,.05-.05.1-.08.14l.09.13.9,1.37L51.19,62l-.4-.62.14.68Z"/></g><g class="cls-2"><path class="cls-4" d="M43.41,7.06a3.08,3.08,0,0,0-2.16-.77c-.58.12-1,.55-1.53,1.37l-.32.07,0-.13v0a1.39,1.39,0,0,0-.45-1A3.88,3.88,0,0,0,36.46,6,1.55,1.55,0,0,0,35,7.2v0a8.19,8.19,0,0,1-.31,1.28A2.5,2.5,0,0,0,34,8.3a1.44,1.44,0,0,0-.52-.89c-.22-.17-.79-.62-2.86-.19a1.48,1.48,0,0,0-1.2,1.69c0,.26.08.69.1,1.15l-1.43.3A1.61,1.61,0,0,0,26.69,12a1.48,1.48,0,0,0,.56,1.15,1.51,1.51,0,0,0,1.31.27l.37-.08a19.1,19.1,0,0,1-.22,3.86A11.61,11.61,0,0,1,27,21.57a1.49,1.49,0,0,0,.18,2,1.52,1.52,0,0,0,1.53.24,1.37,1.37,0,0,0,.78-.38l0,0a11.55,11.55,0,0,0,.86-1,1.66,1.66,0,0,0,1.74.51l.38-.1h0a3.3,3.3,0,0,0,2.42-2.11,5.3,5.3,0,0,0,.3-1v.14c0,.35,0,.62,0,.81a1.61,1.61,0,0,0,.6,1.27,1.59,1.59,0,0,0,1.36.28l.35-.1h0A1.6,1.6,0,0,0,39,20.56c0-.16,0-.41,0-.74s0-.76-.06-1.27a5.85,5.85,0,0,0,2.48,2.08,1.69,1.69,0,0,0,1.37.06,1.24,1.24,0,0,0,1-.65,1.06,1.06,0,0,1,.46-.35c.76-.37.81-.88.78-1.16,0,0,0-.11,0-.18s0-.13,0-.17a1.48,1.48,0,0,0-1.29-1.25,3.56,3.56,0,0,1-2.18-1.29A17.39,17.39,0,0,0,43,14.42a1.68,1.68,0,0,0,.49-.12,1.12,1.12,0,0,0,.94-.72,1,1,0,0,0,0-.69,2.57,2.57,0,0,0-1.56-2,1,1,0,0,0,0-.42,1.24,1.24,0,0,0,0-.33h0c1.35-.3,1.48-1.05,1.47-1.36a1,1,0,0,0-.05-.29v0A1.89,1.89,0,0,0,43.41,7.06Z"/><path class="cls-5" d="M42.81,7.82a2.39,2.39,0,0,0-1.36-.58c-.28.06-.57.39-1.13,1.29l-3.09.64c.14-.31.26-.61.37-.86.34-.09.81-.26.8-.73a.42.42,0,0,0-.15-.31,3.11,3.11,0,0,0-1.73-.35.6.6,0,0,0-.6.49,10.75,10.75,0,0,1-.83,2.68,2.24,2.24,0,0,0-.38-.37c-.11-.09-.69-.53-1.07-.45-.22.05-.47.26-1,1.13l-.47.09,0-1.07c.39-.18.86-.44.84-.92a.4.4,0,0,0-.16-.32c-.41-.32-1.68-.09-2.06,0a.52.52,0,0,0-.44.59,17.63,17.63,0,0,1,.14,2.09l-2.23.46a.65.65,0,0,0-.58.66.56.56,0,0,0,.19.42.62.62,0,0,0,.52.08l1.48-.31a22.34,22.34,0,0,1-.18,5.21,12.64,12.64,0,0,1-1.91,4.75.52.52,0,0,0,0,.73.6.6,0,0,0,.83-.11,11.28,11.28,0,0,0,2.73-5.49,19.08,19.08,0,0,0,.28-2.59l1.21-.25a14.16,14.16,0,0,1-.45,5.18.93.93,0,0,1-.68.64,5.54,5.54,0,0,1-.92.12h-.07a.6.6,0,0,0-.55.44c-.06.2,0,.48.45.64.2,0,.29.09.36.19a.76.76,0,0,0,.91.31,2.71,2.71,0,0,0,2-1.79A15.27,15.27,0,0,0,34.5,15a.88.88,0,0,0,.4-.06,11.67,11.67,0,0,0,1.13-.5l.07,2.41c0,1.34,0,2.34,0,3,0,.35,0,.61,0,.79a.64.64,0,0,0,.22.53.65.65,0,0,0,.56.1c.63-.13,1-.5,1-1,0-.16,0-.4,0-.72,0-.66-.08-1.65-.12-3L37.69,14a1,1,0,0,0,.42-.34c.51,3.24,1.69,5.24,3.61,6.1a.74.74,0,0,0,1-.32,1.59,1.59,0,0,1,.67-.54c.34-.16.5-.36.47-.58s-.19-.35-.5-.41A4.62,4.62,0,0,1,40,15.26a16.41,16.41,0,0,0,2.47-1.81c.3,0,.82.06,1-.37s-.79-1.21-1.19-1.39a.47.47,0,0,0-.38,0,.58.58,0,0,0-.36.28,13.33,13.33,0,0,1-2,2.18,10,10,0,0,1-.35-1.6,20.91,20.91,0,0,0,1.71-1.42c.71.08.91-.23,1-.42.15-.47-.44-.87-.9-1.08l1.25-.26c.7-.14,1.09-.44,1.08-.81A1.06,1.06,0,0,0,42.81,7.82Zm-8,5.27-.15-.1a.81.81,0,0,0,.14-.12,11.05,11.05,0,0,0,1.78-2.37l3.35-.7A17.13,17.13,0,0,1,35,13.63a.38.38,0,0,0,0-.1A.63.63,0,0,0,34.77,13.09Zm-2.1.17-1,.21V12.3c.28-.1.63-.27.67-.66l2-.41.21-.06c-.2.37-.42.75-.66,1.12a.87.87,0,0,0-.12.34,1,1,0,0,0-.41,0C33.18,12.65,32.94,12.87,32.67,13.26Z"/><path class="cls-4" d="M38.81,31.93h0l-.24.05h0Z"/><path class="cls-6" d="M58.13,29.22a47.94,47.94,0,0,1-6.86,3.54A1.85,1.85,0,0,1,48.18,34a60.4,60.4,0,0,1-8.53,2.5,62,62,0,0,1-8.82,1.1,1.84,1.84,0,0,1-1.31,1,1.87,1.87,0,0,1-2-.94,48.74,48.74,0,0,1-7.7-.52c-1.12,5-1,9.43.43,13A5.22,5.22,0,0,1,23.8,45c3.15-1.14,5.86.07,9.32,3l.33.25a4.35,4.35,0,0,1-.82-2.52c-.22-4.41,3.85-6.62,7.42-7.36s8.18-.33,9.74,3.8A4.44,4.44,0,0,1,50,44.86a3,3,0,0,0,.19-.36c2-4.08,4-6.27,7.36-6.48a5.24,5.24,0,0,1,5.33,3.31C62.76,37.49,61.14,33.34,58.13,29.22Z"/><path class="cls-3" d="M49.8,34.43a1.87,1.87,0,0,0,1.47-1.67c-1,.43-2,.85-3.09,1.23A1.87,1.87,0,0,0,49.8,34.43Z"/><path class="cls-3" d="M29.52,38.63a1.84,1.84,0,0,0,1.31-1c-1.12.06-2.23.09-3.33.1A1.87,1.87,0,0,0,29.52,38.63Z"/><path class="cls-7" d="M55.88,24.65c-1.5,1-3,1.91-4.47,2.72-.63.34-1.25.66-1.88,1s-1.47.67-2.21,1A14.17,14.17,0,0,0,52,22.67a15,15,0,0,0,.56-2.31A22.25,22.25,0,0,1,55.88,24.65Z"/><path class="cls-7" d="M35.05,14.3a17.87,17.87,0,0,1,11.29,1.64,11.73,11.73,0,0,1-.94,4.44,10.55,10.55,0,0,1-7.86,5.92A10.55,10.55,0,0,1,28,24a11.54,11.54,0,0,1-2.62-3.7A17.83,17.83,0,0,1,35.05,14.3Z"/><path class="cls-8" d="M22.6,8.1c-.37,5.36.33,9.22,1.45,12,.16.41.34.79.52,1.16a12.58,12.58,0,0,0,2.64,3.57,11.66,11.66,0,0,0,10.55,2.58,11.68,11.68,0,0,0,8.66-6.56,12.45,12.45,0,0,0,1-4.33c0-.41,0-.83,0-1.27-.06-3-1-6.79-3.44-11.57,4.26,3.56,7.75,8.65,7.65,14.4a13,13,0,0,1-.1,1.38,13.91,13.91,0,0,1-.65,2.87c-1.67,5-5.89,8.34-12.19,9.64s-11.5-.07-15-4A14.17,14.17,0,0,1,22,25.58c-.23-.41-.45-.82-.64-1.23C18.93,19.12,20.12,13.05,22.6,8.1Z"/><path class="cls-7" d="M21.43,26.81a15.34,15.34,0,0,0,1.43,1.89A14.16,14.16,0,0,0,29.76,33c-.8,0-1.6,0-2.41,0s-1.41-.07-2.12-.13c-1.68-.15-3.4-.39-5.18-.72A22.12,22.12,0,0,1,21.43,26.81Z"/><path class="cls-7" d="M19.89,35.85a1.7,1.7,0,0,0,0-.22,22,22,0,0,1,.05-2.44c1.21.22,2.38.4,3.54.54.67.08,1.33.15,2,.2q1.52.12,3,.15a47,47,0,0,0,10.33-1l.27-.06A46.21,46.21,0,0,0,49,29.83c.9-.41,1.8-.85,2.7-1.33.58-.31,1.17-.63,1.75-1,1-.59,2-1.23,3-1.91a22.27,22.27,0,0,1,1,2.22,1.8,1.8,0,0,0,.08.21c0,.07,0,.13.07.19l-1.05.65c-.45.27-.93.53-1.42.79A62.06,62.06,0,0,1,39.42,35.4a62.27,62.27,0,0,1-16.68,1c-.56,0-1.1-.1-1.62-.17l-1.22-.17A1.48,1.48,0,0,0,19.89,35.85Z"/><path class="cls-9" d="M27.72,58.93c4.12,1.32,9.33.75,16.43-.72s12.11-3,15.37-5.87c-1.81,5.55-6.3,10.75-13.37,15.51C37.77,66.3,31.59,63.3,27.72,58.93Z"/><path class="cls-7" d="M70.87,39.78c-.5,1.83-3.38,4.43-7.62,6.92,0-.1.07-.21.11-.32,1.5-4.67.5-10.09-2.79-15.51l3,2.16c2.72,1.95,5.29,3.79,6.91,5.25A1.36,1.36,0,0,1,70.87,39.78Z"/><path class="cls-10" d="M38.5,31c-5.92,1.22-10.78-.05-14-3.68a13.83,13.83,0,0,1-3.39-8.48,17.41,17.41,0,0,1,.53-5.27c.34,4.52,1.66,9,4.93,12A12.65,12.65,0,0,0,38,28.39a12.64,12.64,0,0,0,9.38-7.15c1.8-4.06,1.23-8.71-.26-13a17.45,17.45,0,0,1,2.59,4.63A13.83,13.83,0,0,1,49.94,22C48.38,26.63,44.43,29.73,38.5,31Z"/><path class="cls-7" d="M12.32,51.92a1.36,1.36,0,0,1-.25-1.53,85.37,85.37,0,0,1,4.26-7.57c.62-1,1.26-2.1,1.89-3.17-.87,6.28.37,11.65,3.61,15.34a2.73,2.73,0,0,0,.23.25C17.18,54.64,13.5,53.4,12.32,51.92Z"/><path class="cls-3" d="M57.59,38c-3.16.2-5.13,2.17-7,5.85a4,4,0,0,1-.69,2.42.39.39,0,0,1-.26.18.45.45,0,0,1-.32-.06.42.42,0,0,1-.11-.58,3.61,3.61,0,0,0,.23-3.46c-1.06-2.8-3.53-3.65-5.72-3.8-.31,1.67-1.25,3.36-2.83,3.68s-3.12-.84-4.07-2.25c-2,1-3.88,2.77-3.74,5.76a3.62,3.62,0,0,0,1.43,3,.42.42,0,0,1-.49.68,4,4,0,0,1-1.4-1.81C29.37,45,26.78,44,23.8,45a5.22,5.22,0,0,0-3.57,5.15,13.6,13.6,0,0,0,2.43,4.08,12.7,12.7,0,0,0,1.16,1.16,11.53,11.53,0,0,0,1.66,1.26l.23.13.06,0c.31.18.63.34,1,.49l0,0c4.11,1.86,9.48,1.35,17.17-.24,9-1.87,13.43-3.89,15.89-6.57l0,0a10.14,10.14,0,0,0,.67-.83l0-.06c.07-.09.13-.19.19-.28a10.65,10.65,0,0,0,1-1.79A15.77,15.77,0,0,0,62.3,46a13.66,13.66,0,0,0,.62-4.71A5.24,5.24,0,0,0,57.59,38Z"/><path class="cls-6" d="M68.21,54A2.75,2.75,0,0,0,66,52.47,28.32,28.32,0,0,1,61,51a23.36,23.36,0,0,1-4.91,9.52c1.45,8.23-3.13,11.11-8.94,12.32S36,73.23,34.08,65.11a23.33,23.33,0,0,1-8.28-6.79,27.93,27.93,0,0,1-4,3.31,2.75,2.75,0,0,0-1.4,2.29,2.15,2.15,0,0,0,.92,1.75c1.21.8,3.39.24,6.48-1.67a.55.55,0,0,1,.54,0,.52.52,0,0,1,.3.44c.55,6.07,2.28,10.24,5.46,13.12a.54.54,0,0,1,.16.25l.22.75A49.74,49.74,0,0,0,36.32,84a1.9,1.9,0,0,0,2,1.21A2.05,2.05,0,0,0,40.18,84a21.15,21.15,0,0,0,.3-4.89.51.51,0,0,1,.16-.4.53.53,0,0,1,.41-.16,32.21,32.21,0,0,0,7.14-.82,32.16,32.16,0,0,0,6.88-2.09l.12,0a.58.58,0,0,1,.32,0,.54.54,0,0,1,.31.3A21,21,0,0,0,58,80.26a2.07,2.07,0,0,0,2.16.41,1.91,1.91,0,0,0,1.4-1.92A50.19,50.19,0,0,0,61.1,73L61,72.25a.59.59,0,0,1,0-.3c1.78-3.9,1.71-8.42-.2-14.2a.54.54,0,0,1,.1-.53.53.53,0,0,1,.5-.19c3.6.52,5.82.17,6.61-1.05A2.17,2.17,0,0,0,68.21,54Z"/><path class="cls-3" d="M47.19,72.86c5.81-1.21,10.39-4.09,8.94-12.32a43.2,43.2,0,0,1-9.55,8.35.72.72,0,0,1-.2.09h-.21a43.72,43.72,0,0,1-12.09-3.87C36,73.23,41.38,74.06,47.19,72.86Z"/><path class="cls-4" d="M71.23,37.46a86.73,86.73,0,0,0-7-5.33c-1.81-1.29-3.67-2.63-5.49-4a21.58,21.58,0,0,0-1.6-3.5.54.54,0,0,0-.05-.11l0,0A23.85,23.85,0,0,0,52.68,19c.39-5.51-2.09-12.28-10.12-17.81a.56.56,0,0,0-.7.05.55.55,0,0,0-.1.68c3.16,5.39,4.36,9.58,4.55,12.78a18.56,18.56,0,0,0-11.48-1.46,18.57,18.57,0,0,0-10,5.91c-1.1-3-1.67-7.34-.91-13.54a.55.55,0,0,0-1-.36c-5.17,8.28-4.75,15.47-2.21,20.37a24.07,24.07,0,0,0-1.82,6.79s0,.12,0,.16a21.48,21.48,0,0,0-.08,3.84c-1.12,2-2.29,4-3.44,5.86-1.74,2.9-3.38,5.64-4.31,7.68a2.46,2.46,0,0,0,.39,2.69c1.53,1.91,6,3.35,11.93,3.9a12.47,12.47,0,0,0,1.53,1.12,27.08,27.08,0,0,1-3.73,3.08,3.93,3.93,0,0,0-1.89,3.22,3.3,3.3,0,0,0,1.43,2.66c1.53,1,3.74.63,6.91-1.2.65,5.82,2.45,9.93,5.61,12.85l.18.61a55.33,55.33,0,0,0,1.88,5.58,3,3,0,0,0,3.17,1.86,3.13,3.13,0,0,0,2.8-2.1,20.58,20.58,0,0,0,.33-4.57,36.63,36.63,0,0,0,6.82-.85A36.54,36.54,0,0,0,55,76.85a20.64,20.64,0,0,0,2.12,4.06,3,3,0,0,0,3,.92l.37-.1a3,3,0,0,0,2.17-3,51.83,51.83,0,0,0-.49-5.86l-.08-.62c1.74-4,1.76-8.43,0-14,3.64.42,5.82-.11,6.82-1.65a3.27,3.27,0,0,0,.25-3,3.92,3.92,0,0,0-3-2.2A27.36,27.36,0,0,1,61.59,50a12.41,12.41,0,0,0,.95-1.63c5.24-2.88,8.76-6,9.4-8.33A2.48,2.48,0,0,0,71.23,37.46ZM55.88,24.65c-1.5,1-3,1.91-4.47,2.72-.63.34-1.25.66-1.88,1s-1.47.67-2.21,1A14.17,14.17,0,0,0,52,22.67a15,15,0,0,0,.56-2.31A22.25,22.25,0,0,1,55.88,24.65ZM35.05,14.3a17.87,17.87,0,0,1,11.29,1.64,11.73,11.73,0,0,1-.94,4.44,10.55,10.55,0,0,1-7.86,5.92A10.55,10.55,0,0,1,28,24a11.54,11.54,0,0,1-2.62-3.7A17.83,17.83,0,0,1,35.05,14.3ZM22.61,8.1c-.38,5.36.32,9.22,1.44,12,.16.41.34.79.52,1.16a12.58,12.58,0,0,0,2.64,3.57,11.66,11.66,0,0,0,10.55,2.58,11.68,11.68,0,0,0,8.66-6.56,12.45,12.45,0,0,0,1-4.33c0-.41,0-.83,0-1.27-.06-3-1-6.79-3.44-11.57,4.26,3.56,7.75,8.65,7.65,14.4a13,13,0,0,1-.1,1.38,13.91,13.91,0,0,1-.65,2.87c-1.67,5-5.89,8.34-12.19,9.64l.12,0h0l-.2,0h0l.12,0c-6.3,1.31-11.5-.07-15-4A14.59,14.59,0,0,1,22,25.58c-.23-.41-.45-.82-.64-1.23C18.93,19.12,20.12,13.05,22.61,8.1ZM21.43,26.81a15.34,15.34,0,0,0,1.43,1.89A14.16,14.16,0,0,0,29.76,33c-.8,0-1.6,0-2.41,0s-1.41-.07-2.12-.13c-1.68-.15-3.4-.39-5.18-.72A22.12,22.12,0,0,1,21.43,26.81Zm-1.54,9a1.7,1.7,0,0,0,0-.22,22,22,0,0,1,.05-2.44c1.21.22,2.38.4,3.54.54.67.08,1.33.15,2,.2q1.52.12,3,.15a47,47,0,0,0,10.33-1l.27-.06A46.21,46.21,0,0,0,49,29.83c.9-.41,1.8-.85,2.7-1.33.58-.31,1.17-.63,1.75-1,1-.59,2-1.23,3-1.91a22.27,22.27,0,0,1,1,2.22,1.8,1.8,0,0,0,.08.21c0,.07,0,.13.07.19l-1.05.65c-.45.27-.93.53-1.42.79A62.06,62.06,0,0,1,39.42,35.4a62.27,62.27,0,0,1-16.68,1c-.56,0-1.1-.1-1.62-.17l-1.22-.17A1.48,1.48,0,0,0,19.89,35.85ZM12.32,51.92a1.36,1.36,0,0,1-.25-1.53,85.37,85.37,0,0,1,4.26-7.57c.62-1,1.26-2.1,1.89-3.17-.87,6.28.37,11.65,3.61,15.34a2.73,2.73,0,0,0,.23.25C17.18,54.64,13.5,53.4,12.32,51.92ZM66,52.47A2.75,2.75,0,0,1,68.21,54a2.17,2.17,0,0,1-.15,2c-.79,1.22-3,1.57-6.61,1.05a.53.53,0,0,0-.5.19.54.54,0,0,0-.1.53c1.91,5.78,2,10.3.2,14.2a.59.59,0,0,0,0,.3l.09.77a50.19,50.19,0,0,1,.49,5.73,1.91,1.91,0,0,1-1.4,1.92A2.07,2.07,0,0,1,58,80.26a21,21,0,0,1-2.21-4.37.54.54,0,0,0-.31-.3.58.58,0,0,0-.32,0l-.12,0a32.16,32.16,0,0,1-6.88,2.09,32.21,32.21,0,0,1-7.14.82.53.53,0,0,0-.41.16.51.51,0,0,0-.16.4,21.15,21.15,0,0,1-.3,4.89,2.05,2.05,0,0,1-1.82,1.24,1.9,1.9,0,0,1-2-1.21,49.74,49.74,0,0,1-1.83-5.45l-.22-.75a.54.54,0,0,0-.16-.25c-3.18-2.88-4.91-7.05-5.46-13.12a.52.52,0,0,0-.3-.44.55.55,0,0,0-.54,0c-3.09,1.91-5.27,2.47-6.48,1.67a2.15,2.15,0,0,1-.92-1.75,2.75,2.75,0,0,1,1.4-2.29,27.93,27.93,0,0,0,4-3.31,23.33,23.33,0,0,0,8.28,6.79A43.72,43.72,0,0,0,46.17,69h.21a.72.72,0,0,0,.2-.09,43.2,43.2,0,0,0,9.55-8.35A23.36,23.36,0,0,0,61,51,28.32,28.32,0,0,0,66,52.47ZM27.72,58.93c4.12,1.32,9.33.75,16.43-.72s12.11-3,15.37-5.87c-1.81,5.55-6.3,10.75-13.37,15.51C37.77,66.3,31.59,63.3,27.72,58.93Zm34-11.38a10.65,10.65,0,0,1-1,1.79c-.06.09-.12.19-.19.28l0,.06a10.14,10.14,0,0,1-.67.83l0,0c-2.46,2.68-6.9,4.7-15.89,6.57-7.69,1.59-13.06,2.1-17.17.24l0,0c-.33-.15-.65-.31-1-.49l-.06,0-.23-.13a11.53,11.53,0,0,1-1.66-1.26,12.7,12.7,0,0,1-1.16-1.16,13.6,13.6,0,0,1-2.43-4.08c-1.39-3.58-1.55-8-.43-13a47.51,47.51,0,0,0,7.7.53c1.1,0,2.21,0,3.33-.1a62,62,0,0,0,8.82-1.1A60.4,60.4,0,0,0,48.18,34c1-.38,2.09-.8,3.09-1.23a47.94,47.94,0,0,0,6.86-3.54c3,4.12,4.63,8.27,4.79,12.11A13.66,13.66,0,0,1,62.3,46,15.77,15.77,0,0,1,61.73,47.55Zm9.14-7.77c-.5,1.83-3.38,4.43-7.62,6.92,0-.1.07-.21.11-.32,1.5-4.67.5-10.09-2.79-15.51l3,2.16c2.72,1.95,5.29,3.79,6.91,5.25A1.36,1.36,0,0,1,70.87,39.78Z"/><path class="cls-4" d="M38.61,32l.2,0h0l-.12,0-.12,0Z"/><path class="cls-4" d="M50.18,42.07C48.58,37.85,43.86,37.2,40,38s-8,3.28-7.76,7.79a5.53,5.53,0,0,0,.37,1.8h0A4,4,0,0,0,34,49.41a.42.42,0,0,0,.49-.68,3.62,3.62,0,0,1-1.43-3c-.14-3,1.79-4.75,3.74-5.76.95,1.41,2.48,2.58,4.07,2.25s2.52-2,2.83-3.68c2.19.15,4.66,1,5.72,3.8a3.61,3.61,0,0,1-.23,3.46.42.42,0,0,0,.11.58.45.45,0,0,0,.32.06.39.39,0,0,0,.26-.18,4,4,0,0,0,.69-2.42h0A5.56,5.56,0,0,0,50.18,42.07Z"/><path class="cls-4" d="M52,40.37a2.46,2.46,0,0,0,1.42-3.71c-.74-1.38-2.41-2.47-4-1.66-1,.52-1,2.07-.71,3.4C49.12,39.94,50.19,40.93,52,40.37Z"/><path class="cls-4" d="M29.88,45c1.86-.2,2.45-1.53,2.2-3.1-.21-1.36-.87-2.76-2-2.84-1.74-.12-2.85,1.55-3,3.1A2.46,2.46,0,0,0,29.88,45Z"/><path class="cls-4" d="M44.8,43.44a.42.42,0,0,0-.53.26,1.26,1.26,0,0,1-1,.88,2,2,0,0,1-1.8-1,.43.43,0,0,0-.42-.16.4.4,0,0,0-.31.31c-.23.92-.68,1.51-1.25,1.65a1.27,1.27,0,0,1-1.24-.43.42.42,0,0,0-.59,0,.41.41,0,0,0,0,.59,2.13,2.13,0,0,0,2,.7l.08,0a2.47,2.47,0,0,0,1.62-1.55,2.44,2.44,0,0,0,2.1.78A2.11,2.11,0,0,0,45.06,44,.41.41,0,0,0,44.8,43.44Z"/><path class="cls-3" d="M49.87,35.73a1,1,0,0,1,1.32.71.82.82,0,0,1-.61,1.24c-.46.11-.93-.09-1.07-.79C49.41,36.43,49.46,35.92,49.87,35.73Z"/><path class="cls-3" d="M30,39.86A1,1,0,0,0,29,41c0,.59.34,1,1.06.9a.85.85,0,0,0,.66-1.15C30.67,40.32,30.42,39.86,30,39.86Z"/><path class="cls-11" d="M38.77,40.46c-.64.09-1.13-1.06.49-1.27S40.15,40.27,38.77,40.46Z"/><path class="cls-4" d="M43.41,7.06a3.08,3.08,0,0,0-2.16-.77c-.58.12-1,.55-1.53,1.37l-.32.07,0-.13v0a1.39,1.39,0,0,0-.45-1A3.88,3.88,0,0,0,36.46,6,1.55,1.55,0,0,0,35,7.2v0a8.19,8.19,0,0,1-.31,1.28A2.5,2.5,0,0,0,34,8.3a1.44,1.44,0,0,0-.52-.89c-.22-.17-.79-.62-2.86-.19a1.48,1.48,0,0,0-1.2,1.69c0,.26.08.69.1,1.15l-1.43.3A1.61,1.61,0,0,0,26.69,12a1.48,1.48,0,0,0,.56,1.15,1.51,1.51,0,0,0,1.31.27l.37-.08a19.1,19.1,0,0,1-.22,3.86A11.61,11.61,0,0,1,27,21.57a1.49,1.49,0,0,0,.18,2,1.52,1.52,0,0,0,1.53.24,1.37,1.37,0,0,0,.78-.38l0,0a11.55,11.55,0,0,0,.86-1,1.66,1.66,0,0,0,1.74.51l.38-.1h0a3.3,3.3,0,0,0,2.42-2.11,5.3,5.3,0,0,0,.3-1v.14c0,.35,0,.62,0,.81a1.61,1.61,0,0,0,.6,1.27,1.59,1.59,0,0,0,1.36.28l.35-.1h0A1.6,1.6,0,0,0,39,20.56c0-.16,0-.41,0-.74s0-.76-.06-1.27a5.85,5.85,0,0,0,2.48,2.08,1.69,1.69,0,0,0,1.37.06,1.24,1.24,0,0,0,1-.65,1.06,1.06,0,0,1,.46-.35c.76-.37.81-.88.78-1.16,0,0,0-.11,0-.18s0-.13,0-.17a1.48,1.48,0,0,0-1.29-1.25,3.56,3.56,0,0,1-2.18-1.29A17.39,17.39,0,0,0,43,14.42a1.68,1.68,0,0,0,.49-.12,1.12,1.12,0,0,0,.94-.72,1,1,0,0,0,0-.69,2.57,2.57,0,0,0-1.56-2,1,1,0,0,0,0-.42,1.24,1.24,0,0,0,0-.33h0c1.35-.3,1.48-1.05,1.47-1.36a1,1,0,0,0-.05-.29v0A1.89,1.89,0,0,0,43.41,7.06Z"/><path class="cls-5" d="M42.81,7.82a2.39,2.39,0,0,0-1.36-.58c-.28.06-.57.39-1.13,1.29l-3.09.64c.14-.31.26-.61.37-.86.34-.09.81-.26.8-.73a.42.42,0,0,0-.15-.31,3.11,3.11,0,0,0-1.73-.35.6.6,0,0,0-.6.49,10.75,10.75,0,0,1-.83,2.68,2.24,2.24,0,0,0-.38-.37c-.11-.09-.69-.53-1.07-.45-.22.05-.47.26-1,1.13l-.47.09,0-1.07c.39-.18.86-.44.84-.92a.4.4,0,0,0-.16-.32c-.41-.32-1.68-.09-2.06,0a.52.52,0,0,0-.44.59,17.63,17.63,0,0,1,.14,2.09l-2.23.46a.65.65,0,0,0-.58.66.56.56,0,0,0,.19.42.62.62,0,0,0,.52.08l1.48-.31a22.34,22.34,0,0,1-.18,5.21,12.64,12.64,0,0,1-1.91,4.75.52.52,0,0,0,0,.73.6.6,0,0,0,.83-.11,11.28,11.28,0,0,0,2.73-5.49,19.08,19.08,0,0,0,.28-2.59l1.21-.25a14.16,14.16,0,0,1-.45,5.18.93.93,0,0,1-.68.64,5.54,5.54,0,0,1-.92.12h-.07a.6.6,0,0,0-.55.44c-.06.2,0,.48.45.64.2,0,.29.09.36.19a.76.76,0,0,0,.91.31,2.71,2.71,0,0,0,2-1.79A15.27,15.27,0,0,0,34.5,15a.88.88,0,0,0,.4-.06,11.67,11.67,0,0,0,1.13-.5l.07,2.41c0,1.34,0,2.34,0,3,0,.35,0,.61,0,.79a.64.64,0,0,0,.22.53.65.65,0,0,0,.56.1c.63-.13,1-.5,1-1,0-.16,0-.4,0-.72,0-.66-.08-1.65-.12-3L37.69,14a1,1,0,0,0,.42-.34c.51,3.24,1.69,5.24,3.61,6.1a.74.74,0,0,0,1-.32,1.59,1.59,0,0,1,.67-.54c.34-.16.5-.36.47-.58s-.19-.35-.5-.41A4.62,4.62,0,0,1,40,15.26a16.41,16.41,0,0,0,2.47-1.81c.3,0,.82.06,1-.37s-.79-1.21-1.19-1.39a.47.47,0,0,0-.38,0,.58.58,0,0,0-.36.28,13.33,13.33,0,0,1-2,2.18,10,10,0,0,1-.35-1.6,20.91,20.91,0,0,0,1.71-1.42c.71.08.91-.23,1-.42.15-.47-.44-.87-.9-1.08l1.25-.26c.7-.14,1.09-.44,1.08-.81A1.06,1.06,0,0,0,42.81,7.82Zm-8,5.27-.15-.1a.81.81,0,0,0,.14-.12,11.05,11.05,0,0,0,1.78-2.37l3.35-.7A17.13,17.13,0,0,1,35,13.63a.38.38,0,0,0,0-.1A.63.63,0,0,0,34.77,13.09Zm-2.1.17-1,.21V12.3c.28-.1.63-.27.67-.66l2-.41.21-.06c-.2.37-.42.75-.66,1.12a.87.87,0,0,0-.12.34,1,1,0,0,0-.41,0C33.18,12.65,32.94,12.87,32.67,13.26Z"/><path class="cls-3" d="M38.36,64.07l-.08-.38a2,2,0,0,0,.72,0,.47.47,0,0,0,.36-.25,1,1,0,0,0,0-.58L39,61.12l.44-.09.38,1.86a1,1,0,0,1-.07.78,1.06,1.06,0,0,1-.68.37A1.92,1.92,0,0,1,38.36,64.07Z"/><path class="cls-3" d="M40.39,63.73l.38-3,.46-.1,1.52,2.59-.45.09-.38-.69-1,.21-.08.79Zm.54-1.23.83-.17-.69-1.24h0Z"/><path class="cls-3" d="M43.4,60.52a.41.41,0,0,0-.3.17.36.36,0,0,0-.05.31.38.38,0,0,0,.16.24.66.66,0,0,0,.34.13,1.64,1.64,0,0,1,.78.23.68.68,0,0,1,.3.47.76.76,0,0,1-.11.64,1.15,1.15,0,0,1-.66.34,1.63,1.63,0,0,1-.76,0l-.08-.4a1.25,1.25,0,0,0,.73.08c.37-.07.53-.26.46-.55a.42.42,0,0,0-.16-.26.94.94,0,0,0-.41-.13,1.64,1.64,0,0,1-.71-.23.75.75,0,0,1-.29-.46.7.7,0,0,1,.1-.57.87.87,0,0,1,.55-.32,1.94,1.94,0,0,1,.83,0l.08.39A1.47,1.47,0,0,0,43.4,60.52Z"/><path class="cls-3" d="M45.52,61.57l.22,1-.42.09-.58-2.78.76-.16a1.59,1.59,0,0,1,.91,0,.73.73,0,0,1,.4.56q.19.91-.87,1.14Zm-.07-.33.38-.07a.84.84,0,0,0,.49-.25.47.47,0,0,0,.09-.44c-.07-.35-.34-.48-.8-.38l-.38.08Z"/><path class="cls-3" d="M47.57,59.7l.16.79,1.18-.24.07.32-1.18.25.2,1,1.26-.26.07.35-1.67.34-.58-2.78,1.68-.35.07.35Z"/><path class="cls-3" d="M50.1,60.53l.24,1.14-.42.08L49.34,59l.68-.14a1.72,1.72,0,0,1,.94,0,.62.62,0,0,1,.4.5.79.79,0,0,1,0,.51.76.76,0,0,1-.35.36h0a1,1,0,0,1,.39.39l.5.75-.44.09-.48-.75a.55.55,0,0,0-.23-.23.86.86,0,0,0-.38,0Zm0-1.37-.3.06.2,1,.23-.05a1.12,1.12,0,0,0,.59-.26.48.48,0,0,0,.11-.44.42.42,0,0,0-.24-.3A1.17,1.17,0,0,0,50.13,59.16Z"/></g><path class="cls-3" d="M24.14,67l.77.5-1.72,2.65a3.25,3.25,0,0,1-.68.83,1,1,0,0,1-.59.19,1.17,1.17,0,0,1-.65-.21,1.64,1.64,0,0,1-.76-1.31l.89-.16a1.34,1.34,0,0,0,.13.48.57.57,0,0,0,.2.23.23.23,0,0,0,.25,0,1.38,1.38,0,0,0,.35-.42Z"/><path class="cls-3" d="M27.38,70.23l.79.4L26.6,73.78l-.79-.39.16-.33a1.54,1.54,0,0,1-.62.08A1.37,1.37,0,0,1,24.8,73,1.58,1.58,0,0,1,24,72a1.86,1.86,0,0,1,.14-1.4,1.91,1.91,0,0,1,1-1,1.54,1.54,0,0,1,1.28.06,1.47,1.47,0,0,1,.48.37,1.62,1.62,0,0,1,.3.55Zm-1.16.24a.87.87,0,0,0-.74,0,1,1,0,0,0-.57.54,1,1,0,0,0-.09.8,1,1,0,0,0,1.23.61,1.05,1.05,0,0,0,.58-.56,1,1,0,0,0,.08-.79A.9.9,0,0,0,26.22,70.47Z"/><path class="cls-3" d="M29.76,71.23l-.13.36a1.75,1.75,0,0,1,.61-.17,1.55,1.55,0,0,1,.6.08,1.53,1.53,0,0,1,.94.87,2,2,0,0,1,0,1.43,1.87,1.87,0,0,1-.9,1.08,1.55,1.55,0,0,1-1.29.12,1.46,1.46,0,0,1-.5-.29,1.53,1.53,0,0,1-.38-.5l-.54,1.57-.83-.28,1.56-4.56Zm.64,1a.93.93,0,0,0-.75.05,1,1,0,0,0-.5.62,1,1,0,0,0,0,.8.93.93,0,0,0,.56.5.88.88,0,0,0,.74-.06A1,1,0,0,0,31,73.5a1.07,1.07,0,0,0,0-.79A.93.93,0,0,0,30.4,72.21Z"/><path class="cls-3" d="M35.58,72.8l.87.17-.7,3.46-.86-.18.07-.36a1.56,1.56,0,0,1-.58.24,1.42,1.42,0,0,1-.58,0,1.59,1.59,0,0,1-1-.75A1.85,1.85,0,0,1,32.52,74a1.91,1.91,0,0,1,.74-1.22,1.52,1.52,0,0,1,1.25-.28,1.62,1.62,0,0,1,.56.23,1.73,1.73,0,0,1,.43.46Zm-1.06.53a.84.84,0,0,0-.72.15,1,1,0,0,0-.41.67,1.06,1.06,0,0,0,.12.79.91.91,0,0,0,.61.43.93.93,0,0,0,.73-.15,1.08,1.08,0,0,0,.42-.69,1.05,1.05,0,0,0-.12-.79A.9.9,0,0,0,34.52,73.33Z"/><path class="cls-3" d="M37.3,73.07l.88.07,0,.36a1.92,1.92,0,0,1,.57-.31,1.29,1.29,0,0,1,.51-.07,1.24,1.24,0,0,1,.86.43,1.26,1.26,0,0,1,.24.94l-.17,2.33-.87-.07.11-1.54a3.69,3.69,0,0,0,0-.84.53.53,0,0,0-.17-.33.55.55,0,0,0-.34-.13.65.65,0,0,0-.47.15.91.91,0,0,0-.3.47,3.12,3.12,0,0,0-.09.71l-.11,1.41L37,76.59Z"/><path class="cls-3" d="M47.44,72.38l-.56.67a2,2,0,0,0-1.53-.51,1.6,1.6,0,0,0-1.42,1.8,1.84,1.84,0,0,0,.3.82,1.6,1.6,0,0,0,.65.5,1.79,1.79,0,0,0,.86.12,1.62,1.62,0,0,0,.7-.24,2.41,2.41,0,0,0,.66-.61l.68.57a3.35,3.35,0,0,1-.91.82,2.54,2.54,0,0,1-1,.32,2.54,2.54,0,0,1-2.63-3.49,2.32,2.32,0,0,1,.82-1,2.52,2.52,0,0,1,1.24-.48,2.69,2.69,0,0,1,1.16.11A2.93,2.93,0,0,1,47.44,72.38Z"/><path class="cls-3" d="M49.13,75a.47.47,0,0,1,.38.07.47.47,0,0,1,.22.31.53.53,0,0,1-.06.39.51.51,0,0,1-.32.22.49.49,0,0,1-.39-.07.47.47,0,0,1-.22-.31.49.49,0,0,1,.07-.39A.5.5,0,0,1,49.13,75Z"/><path class="cls-3" d="M49.66,71l.91-.29a3,3,0,0,1,1.12-.2,1.09,1.09,0,0,1,.65.28,1.4,1.4,0,0,1,.43.68,1.26,1.26,0,0,1,0,.81,1.3,1.3,0,0,1-.5.66L54,74.57l-.95.3-1.63-1.6-.08,0L52,75.22l-.86.28Zm1.42,1.5.28-.08a1.19,1.19,0,0,0,.53-.29.44.44,0,0,0,0-.41.39.39,0,0,0-.16-.23.46.46,0,0,0-.26-.1,1.64,1.64,0,0,0-.48.11l-.24.07Z"/><path class="cls-3" d="M54.92,73.18a.44.44,0,0,1,.39,0,.45.45,0,0,1,.27.27.48.48,0,0,1,0,.39.49.49,0,0,1-.27.28.48.48,0,0,1-.39,0,.49.49,0,0,1-.28-.27.53.53,0,0,1,0-.39A.49.49,0,0,1,54.92,73.18Z"/><path class="cls-3" d="M58.91,67.81l-.27.84a2,2,0,0,0-1.61.09,1.6,1.6,0,0,0-.65,2.2,1.66,1.66,0,0,0,.59.64,1.43,1.43,0,0,0,.79.23,1.69,1.69,0,0,0,.84-.21,1.76,1.76,0,0,0,.56-.48,2.55,2.55,0,0,0,.38-.81l.84.27a3.22,3.22,0,0,1-.53,1.1,2.68,2.68,0,0,1-.85.69,2.54,2.54,0,0,1-3.74-2.27,2.34,2.34,0,0,1,.39-1.22,2.68,2.68,0,0,1,1-.92,2.89,2.89,0,0,1,1.12-.32A2.76,2.76,0,0,1,58.91,67.81Z"/><path class="cls-3" d="M61.47,69.62a.48.48,0,0,1,.38-.08.5.5,0,0,1,.41.59.54.54,0,0,1-.21.32.47.47,0,0,1-.38.08.5.5,0,0,1-.41-.59A.54.54,0,0,1,61.47,69.62Z"/><g id="グループ化_7" data-name="グループ化 7"><g id="グループ化_5" data-name="グループ化 5"><g id="グループ化_3" data-name="グループ化 3"><g id="グループ化_1" data-name="グループ化 1"><path id="パス_1" data-name="パス 1" d="M108.67,46h9.21l1.27-2.21h11.57L132.06,46h9.19L125,17.79Zm15.1-10.19,1.2-2.09,1.21,2.09Z"/><path id="パス_2" data-name="パス 2" d="M165.64,28.66a11,11,0,0,0-10.95-11H142V46h8V39.64h4.64a11,11,0,0,0,11-10.95v0Zm-11,3H150V25.63h4.64a3,3,0,1,1,0,6.07Z"/><path id="パス_3" data-name="パス 3" d="M160.33,46h9.21l1.26-2.21h11.58L183.72,46h9.19l-16.3-28.24Zm15.1-10.19,1.2-2.09,1.21,2.09Z"/><path id="パス_4" data-name="パス 4" d="M219.21,7.76h-117v6h0V31.62a6.5,6.5,0,0,1-1.87,4.7,6.18,6.18,0,0,1-4.6,1.93v10a15.81,15.81,0,0,0,11.64-4.88,16,16,0,0,0,4.85-11.7V14.89h99V32.68L193.4,18.61V46h8V35l17.83,14.13V13.77h0Z"/></g><g id="グループ化_2" data-name="グループ化 2"><path id="パス_5" data-name="パス 5" d="M241.74,14.17A16,16,0,0,1,254,19.44L249.19,24a10.7,10.7,0,0,0-7.45-3.2,8.65,8.65,0,0,0,0,17.29,10.65,10.65,0,0,0,7.45-3.19l4.69,4.58a16.28,16.28,0,0,1-12.14,5.27,15.3,15.3,0,0,1-.41-30.59h.41Z"/><path id="パス_6" data-name="パス 6" d="M260.15,37.91a3.3,3.3,0,1,1-3.44,3.29,3.16,3.16,0,0,1,3-3.3A2.26,2.26,0,0,1,260.15,37.91Z"/><path id="パス_7" data-name="パス 7" d="M267.45,15.12h12c6.16,0,10.17,3.71,10.17,9.12,0,5-2.53,7.84-6.8,8.88l7.74,10.66h-8.78l-7.32-10.72V43.78h-7Zm12.66,12.42a3.28,3.28,0,0,0-.18-6.46h-5.45v6.46Z"/><path id="パス_8" data-name="パス 8" d="M295.79,37.91a3.3,3.3,0,1,1-3.44,3.29,3.15,3.15,0,0,1,3-3.3A2.26,2.26,0,0,1,295.79,37.91Z"/><path id="パス_9" data-name="パス 9" d="M318.92,14.17a15.92,15.92,0,0,1,12.28,5.27L326.38,24a10.74,10.74,0,0,0-7.46-3.2,8.65,8.65,0,0,0,0,17.29,10.69,10.69,0,0,0,7.46-3.19l4.68,4.58a16.28,16.28,0,0,1-12.14,5.27,15.3,15.3,0,1,1-.4-30.59h.4Z"/><path id="パス_10" data-name="パス 10" d="M337.32,37.91a3.3,3.3,0,1,1-3.44,3.29,3.15,3.15,0,0,1,3-3.3A2.26,2.26,0,0,1,337.32,37.91Z"/></g></g><g id="グループ化_4" data-name="グループ化 4"><rect id="長方形_2" data-name="長方形 2" x="90.96" y="53.35" width="254.49" height="1.41"/></g></g><g id="グループ化_6" data-name="グループ化 6"><path id="パス_11" data-name="パス 11" d="M89,68.28v.28a5.18,5.18,0,0,0,.3,2,1.1,1.1,0,0,0,1.12.59,1.12,1.12,0,0,0,1.13-.63,3.61,3.61,0,0,0,.16-1.26V60.7h2.55v8.5a5,5,0,0,1-.53,2.48,4.3,4.3,0,0,1-6,.55L87.4,72a6.38,6.38,0,0,1-.78-3.4V68.3H89Z"/><path id="パス_12" data-name="パス 12" d="M100.43,60.68h2.9l4.32,12.22h-2.78l-.8-2.51h-4.5l-.83,2.51H96.07Zm-.18,7.6h3.14l-1.55-4.8Z"/><path id="パス_13" data-name="パス 13" d="M117.38,67.62a4.66,4.66,0,0,1-3.06.9h-2.53V72.9h-2.53V60.68h5.24a4.29,4.29,0,0,1,2.9.94,3.67,3.67,0,0,1,1.08,2.91A3.84,3.84,0,0,1,117.38,67.62Zm-1.93-4.4a2.17,2.17,0,0,0-1.37-.41h-2.29v3.6h2.29a2,2,0,0,0,1.37-.44,1.75,1.75,0,0,0,.48-1.39,1.72,1.72,0,0,0-.48-1.36Z"/><path id="パス_14" data-name="パス 14" d="M124,60.68h2.89L131.2,72.9h-2.77l-.8-2.51h-4.5l-.83,2.51h-2.67Zm-.16,7.6H127l-1.54-4.8Z"/><path id="パス_15" data-name="パス 15" d="M132.71,60.68h2.68l4.84,8.52V60.68h2.37V72.9h-2.54l-5-8.66V72.9h-2.39Z"/><path id="パス_16" data-name="パス 16" d="M154.94,67.11a1.87,1.87,0,0,0-.34-.9,1.42,1.42,0,0,0-1.24-.54,1.61,1.61,0,0,0-1.63,1.19,4.73,4.73,0,0,0-.24,1.67,4.3,4.3,0,0,0,.24,1.59,1.57,1.57,0,0,0,1.59,1.12,1.38,1.38,0,0,0,1.18-.44,2,2,0,0,0,.42-1.17h2.42a4,4,0,0,1-.79,2,3.77,3.77,0,0,1-3.29,1.55A3.88,3.88,0,0,1,150,71.93a6.14,6.14,0,0,1,.12-7,4,4,0,0,1,3.14-1.28,4.68,4.68,0,0,1,2.77.76,3.6,3.6,0,0,1,1.29,2.7Z"/><path id="パス_17" data-name="パス 17" d="M162.54,67.41a3.75,3.75,0,0,0,.94-.2.68.68,0,0,0,.5-.66.76.76,0,0,0-.38-.76,2.52,2.52,0,0,0-1.15-.23,1.53,1.53,0,0,0-1.2.43,1.75,1.75,0,0,0-.34.82h-2.27a3.45,3.45,0,0,1,.67-2,3.87,3.87,0,0,1,3.23-1.19,5.9,5.9,0,0,1,2.65.59,2.27,2.27,0,0,1,1.17,2.21v4.14c0,.28,0,.64,0,1a1.33,1.33,0,0,0,.13.62,1.35,1.35,0,0,0,.35.28v.34h-2.58a1.82,1.82,0,0,1-.14-.52q0-.24-.06-.54a4.47,4.47,0,0,1-1.12.91,3.4,3.4,0,0,1-1.73.44,2.94,2.94,0,0,1-2-.7,2.47,2.47,0,0,1-.81-2,2.57,2.57,0,0,1,1.29-2.42,6.39,6.39,0,0,1,2.09-.58ZM164,68.52a2.77,2.77,0,0,1-.46.22,2.94,2.94,0,0,1-.65.16l-.53.1a3.7,3.7,0,0,0-1.09.32,1.06,1.06,0,0,0-.56,1,1,1,0,0,0,.34.86,1.26,1.26,0,0,0,.83.27,2.41,2.41,0,0,0,1.42-.44,1.9,1.9,0,0,0,.69-1.63v-.86Z"/><path id="パス_18" data-name="パス 18" d="M179.67,63.9a2.56,2.56,0,0,1,1,.8,2.66,2.66,0,0,1,.53,1.17,8.36,8.36,0,0,1,.08,1.32l0,5.69h-2.42V67.13a1.88,1.88,0,0,0-.16-.84,1.14,1.14,0,0,0-1.16-.62,1.32,1.32,0,0,0-1.34.8,2.5,2.5,0,0,0-.18,1v5.36h-2.38V67.52a3.1,3.1,0,0,0-.16-1.17,1.12,1.12,0,0,0-1.16-.66,1.39,1.39,0,0,0-1.37.66,2.62,2.62,0,0,0-.18,1.11v5.42h-2.4v-9h2.29V65.2a4.17,4.17,0,0,1,.83-1,2.67,2.67,0,0,1,4.24,1,2.89,2.89,0,0,1,1.14-1.16,3.46,3.46,0,0,1,1.63-.38A3.26,3.26,0,0,1,179.67,63.9Z"/><path id="パス_19" data-name="パス 19" d="M191.09,64.84a4.82,4.82,0,0,1,1.1,3.44,5.48,5.48,0,0,1-1.08,3.64,3.52,3.52,0,0,1-2.78,1.24,2.94,2.94,0,0,1-1.81-.53,3.33,3.33,0,0,1-.76-.87v4.71h-2.33V63.88h2.27V65.2a3.27,3.27,0,0,1,.82-.92,3,3,0,0,1,1.89-.6A3.55,3.55,0,0,1,191.09,64.84Zm-1.81,1.69a1.69,1.69,0,0,0-1.57-.8A1.77,1.77,0,0,0,185.92,67a4.62,4.62,0,0,0-.24,1.65,2.6,2.6,0,0,0,.84,2.21,2,2,0,0,0,1.19.39,1.8,1.8,0,0,0,1.53-.77,3.43,3.43,0,0,0,.52-2,3.7,3.7,0,0,0-.48-1.87Z"/><path id="パス_20" data-name="パス 20" d="M196.29,62.79H193.9V60.62h2.39Zm-2.41,1.09h2.39v9h-2.39Z"/><path id="パス_21" data-name="パス 21" d="M205.86,64.4a3,3,0,0,1,.88,2.43v6.09h-2.41V67.44a2.53,2.53,0,0,0-.18-1.09,1.31,1.31,0,0,0-1.31-.7,1.61,1.61,0,0,0-1.63,1A3.55,3.55,0,0,0,201,68v4.88h-2.35v-9h2.29v1.33a3.67,3.67,0,0,1,.87-1,3,3,0,0,1,1.85-.54A3.2,3.2,0,0,1,205.86,64.4Z"/><path id="パス_22" data-name="パス 22" d="M213.4,63.86a2.77,2.77,0,0,1,1.38,1.3v-1.3h2.31v8.56a4.82,4.82,0,0,1-.58,2.63,4.32,4.32,0,0,1-3.88,1.53,5.28,5.28,0,0,1-2.83-.68,2.51,2.51,0,0,1-1.21-2h2.57a1.09,1.09,0,0,0,.33.6,2,2,0,0,0,1.28.32,1.73,1.73,0,0,0,1.71-.84,4.42,4.42,0,0,0,.28-1.83v-.59a2.62,2.62,0,0,1-.72.87,2.85,2.85,0,0,1-1.83.53,3.38,3.38,0,0,1-2.77-1.22,5,5,0,0,1-1.05-3.32,5.49,5.49,0,0,1,1-3.37,3.3,3.3,0,0,1,2.83-1.37A2.92,2.92,0,0,1,213.4,63.86Zm.8,6.47a2.84,2.84,0,0,0,.56-2,3,3,0,0,0-.54-2,1.77,1.77,0,0,0-1.45-.66,1.71,1.71,0,0,0-1.71,1.16,4.42,4.42,0,0,0-.24,1.53,3.6,3.6,0,0,0,.26,1.41A1.72,1.72,0,0,0,212.79,71a1.82,1.82,0,0,0,1.41-.64Z"/><path id="パス_23" data-name="パス 23" d="M224.69,67.11a1.87,1.87,0,0,0-.34-.9,1.44,1.44,0,0,0-1.25-.54,1.6,1.6,0,0,0-1.62,1.19,5,5,0,0,0-.25,1.67,4.53,4.53,0,0,0,.25,1.59,1.56,1.56,0,0,0,1.58,1.12,1.39,1.39,0,0,0,1.19-.44,2.06,2.06,0,0,0,.42-1.17h2.42a4,4,0,0,1-.79,2A3.77,3.77,0,0,1,223,73.21a3.88,3.88,0,0,1-3.22-1.28,6.14,6.14,0,0,1,.12-7A4,4,0,0,1,223,63.67a4.69,4.69,0,0,1,2.78.76,3.56,3.56,0,0,1,1.28,2.7Z"/><path id="パス_24" data-name="パス 24" d="M232.31,67.41a3.75,3.75,0,0,0,.94-.2.68.68,0,0,0,.5-.66.76.76,0,0,0-.38-.76,2.52,2.52,0,0,0-1.15-.23A1.5,1.5,0,0,0,231,66a1.75,1.75,0,0,0-.34.82H228.4a3.52,3.52,0,0,1,.67-2,3.87,3.87,0,0,1,3.23-1.19,6,6,0,0,1,2.66.59,2.28,2.28,0,0,1,1.16,2.21v4.14c0,.28,0,.64,0,1a.82.82,0,0,0,.49.9v.34h-2.58a1.8,1.8,0,0,1-.13-.52q0-.24-.06-.54a4.71,4.71,0,0,1-1.13.91,3.35,3.35,0,0,1-1.73.44,3,3,0,0,1-2-.7,2.46,2.46,0,0,1-.8-2,2.58,2.58,0,0,1,1.28-2.42,6.38,6.38,0,0,1,2.1-.58Zm1.45,1.11a2.77,2.77,0,0,1-.46.22,2.94,2.94,0,0,1-.65.16l-.53.1a3.7,3.7,0,0,0-1.09.32,1.06,1.06,0,0,0-.56,1,1,1,0,0,0,.34.86,1.25,1.25,0,0,0,.82.27,2.42,2.42,0,0,0,1.43-.44,1.9,1.9,0,0,0,.69-1.63v-.86Z"/><path id="パス_25" data-name="パス 25" d="M243.19,63.66a.71.71,0,0,1,.2,0v2.41l-.41,0h-.28a1.94,1.94,0,0,0-1.91.92,3.7,3.7,0,0,0-.28,1.61V72.9h-2.37v-9h2.25v1.57a4.9,4.9,0,0,1,.94-1.23,2.68,2.68,0,0,1,1.73-.56Z"/><path id="パス_26" data-name="パス 26" d="M254.5,63.66a.65.65,0,0,1,.2,0v2.41l-.4,0H254a1.94,1.94,0,0,0-1.91.92,3.7,3.7,0,0,0-.28,1.61V72.9h-2.37v-9h2.25v1.57a4.9,4.9,0,0,1,.94-1.23,2.68,2.68,0,0,1,1.73-.56Z"/><path id="パス_27" data-name="パス 27" d="M262,64.06a3.82,3.82,0,0,1,1.57,1.33,4.66,4.66,0,0,1,.72,1.86,12,12,0,0,1,.08,1.79h-6.57a2.17,2.17,0,0,0,.94,1.91,2.43,2.43,0,0,0,1.31.35,1.86,1.86,0,0,0,1.79-1h2.41a2.91,2.91,0,0,1-.88,1.63,4.42,4.42,0,0,1-3.4,1.33,4.86,4.86,0,0,1-3.18-1.11,4.35,4.35,0,0,1-1.38-3.62,4.91,4.91,0,0,1,1.24-3.6,4.3,4.3,0,0,1,3.24-1.24A5.13,5.13,0,0,1,262,64.06Zm-3.54,2a2.3,2.3,0,0,0-.62,1.41h4.06a2,2,0,0,0-.62-1.43,2.08,2.08,0,0,0-1.41-.48,1.84,1.84,0,0,0-1.41.5Z"/><path id="パス_28" data-name="パス 28" d="M272.81,64.4a3,3,0,0,1,.89,2.43v6.09h-2.41V67.44a2.53,2.53,0,0,0-.18-1.09,1.31,1.31,0,0,0-1.31-.7,1.6,1.6,0,0,0-1.63,1A3.37,3.37,0,0,0,268,68v4.88H265.6v-9h2.29v1.33a3.81,3.81,0,0,1,.86-1,3.08,3.08,0,0,1,1.85-.54A3.2,3.2,0,0,1,272.81,64.4Z"/><path id="パス_29" data-name="パス 29" d="M275,65.65V64h1.27V61.45h2.33V64H280v1.69h-1.47v4.76c0,.36,0,.6.14.69s.38.13.86.13h.22a.93.93,0,0,0,.24,0V73l-1.12,0a3.07,3.07,0,0,1-2.29-.58,1.69,1.69,0,0,1-.4-1.25V65.62H275Z"/><path id="パス_30" data-name="パス 30" d="M285.12,67.41a3.77,3.77,0,0,0,.93-.2.68.68,0,0,0,.51-.66.78.78,0,0,0-.39-.76,2.48,2.48,0,0,0-1.14-.23,1.54,1.54,0,0,0-1.21.43,1.75,1.75,0,0,0-.34.82h-2.27a3.51,3.51,0,0,1,.66-2,3.88,3.88,0,0,1,3.24-1.19,6,6,0,0,1,2.65.59,2.27,2.27,0,0,1,1.17,2.21v4.14c0,.28,0,.64,0,1a1.22,1.22,0,0,0,.13.62,1.3,1.3,0,0,0,.34.28v.34h-2.57a1.53,1.53,0,0,1-.13-.52c0-.16,0-.34-.06-.54a4.71,4.71,0,0,1-1.13.91,3.38,3.38,0,0,1-1.73.44,3,3,0,0,1-2-.7,2.46,2.46,0,0,1-.8-2,2.58,2.58,0,0,1,1.28-2.42,6.39,6.39,0,0,1,2.09-.58Zm1.44,1.11a2.43,2.43,0,0,1-.46.22,2.86,2.86,0,0,1-.64.16l-.54.1a3.64,3.64,0,0,0-1.08.32,1.09,1.09,0,0,0-.57,1,1,1,0,0,0,.34.86,1.26,1.26,0,0,0,.83.27,2.44,2.44,0,0,0,1.43-.44,1.92,1.92,0,0,0,.68-1.63v-.86Z"/><path id="パス_31" data-name="パス 31" d="M293.38,72.9H291V60.68h2.35Z"/><path id="パス_32" data-name="パス 32" d="M305.8,67.11a2.1,2.1,0,0,0-.34-.9,1.44,1.44,0,0,0-1.25-.54,1.62,1.62,0,0,0-1.63,1.19,4.73,4.73,0,0,0-.24,1.67,4.3,4.3,0,0,0,.24,1.59,1.57,1.57,0,0,0,1.59,1.12,1.41,1.41,0,0,0,1.19-.44,2.13,2.13,0,0,0,.42-1.17h2.41a3.94,3.94,0,0,1-.78,2,3.8,3.8,0,0,1-3.3,1.55,3.88,3.88,0,0,1-3.22-1.28,5.25,5.25,0,0,1-1-3.36A5.34,5.34,0,0,1,301,65a4,4,0,0,1,3.14-1.28,4.68,4.68,0,0,1,2.77.76,3.54,3.54,0,0,1,1.29,2.7Z"/><path id="パス_33" data-name="パス 33" d="M315.73,64.06a3.82,3.82,0,0,1,1.57,1.33,4.81,4.81,0,0,1,.72,1.86A13.48,13.48,0,0,1,318.1,69h-6.57a2.15,2.15,0,0,0,.94,1.91,2.43,2.43,0,0,0,1.31.35,1.86,1.86,0,0,0,1.79-1H318a2.91,2.91,0,0,1-.88,1.63,4.42,4.42,0,0,1-3.4,1.33,4.86,4.86,0,0,1-3.18-1.11,4.35,4.35,0,0,1-1.38-3.62,4.91,4.91,0,0,1,1.24-3.6,4.3,4.3,0,0,1,3.24-1.24A5.13,5.13,0,0,1,315.73,64.06Zm-3.54,2a2.3,2.3,0,0,0-.62,1.41h4.06a2,2,0,0,0-.63-1.43,2,2,0,0,0-1.4-.48,1.84,1.84,0,0,0-1.41.5Z"/><path id="パス_34" data-name="パス 34" d="M326.56,64.4a3,3,0,0,1,.89,2.43v6.09H325V67.44a2.39,2.39,0,0,0-.18-1.09,1.3,1.3,0,0,0-1.3-.7,1.6,1.6,0,0,0-1.63,1A3.37,3.37,0,0,0,321.7,68v4.88h-2.35v-9h2.29v1.33a3.64,3.64,0,0,1,.86-1,3,3,0,0,1,1.85-.54A3.2,3.2,0,0,1,326.56,64.4Z"/><path id="パス_35" data-name="パス 35" d="M328.71,65.65V64H330V61.45h2.33V64h1.47v1.69h-1.47v4.76c0,.36,0,.6.14.69s.38.13.86.13h.22a1,1,0,0,0,.24,0V73l-1.12,0a3.07,3.07,0,0,1-2.29-.58,1.74,1.74,0,0,1-.41-1.25V65.62h-1.24Z"/><path id="パス_36" data-name="パス 36" d="M341.17,64.06a3.76,3.76,0,0,1,1.57,1.33,4.83,4.83,0,0,1,.73,1.86,15.41,15.41,0,0,1,.08,1.79H337a2.13,2.13,0,0,0,.94,1.91,2.4,2.4,0,0,0,1.3.35,1.84,1.84,0,0,0,1.79-1h2.42a2.87,2.87,0,0,1-.89,1.63,4.4,4.4,0,0,1-3.4,1.33A4.83,4.83,0,0,1,336,72.1a4.36,4.36,0,0,1-1.39-3.62,4.88,4.88,0,0,1,1.25-3.6,4.28,4.28,0,0,1,3.23-1.24A5.07,5.07,0,0,1,341.17,64.06Zm-3.53,2A2.37,2.37,0,0,0,337,67.5h4.06a2,2,0,0,0-.62-1.43,2.05,2.05,0,0,0-1.41-.48,1.83,1.83,0,0,0-1.4.5Z"/><path id="パス_37" data-name="パス 37" d="M349.74,63.66a.68.68,0,0,1,.2,0v2.41l-.4,0h-.28a1.92,1.92,0,0,0-1.91.92,3.57,3.57,0,0,0-.29,1.61V72.9h-2.37v-9h2.25v1.57a5.15,5.15,0,0,1,.94-1.23,2.7,2.7,0,0,1,1.73-.56Z"/></g></g></svg>